<svg width="1280" height="720" xmlns="http://www.w3.org/2000/svg" xmlns:xlink="http://www.w3.org/1999/xlink" overflow="hidden"><defs><filter id="fx0" x="-10%" y="-10%" width="120%" height="120%" filterUnits="userSpaceOnUse" primitiveUnits="userSpaceOnUse"><feComponentTransfer color-interpolation-filters="sRGB"><feFuncR type="discrete" tableValues="0.498039 0.498039"/><feFuncG type="discrete" tableValues="0.498039 0.498039"/><feFuncB type="discrete" tableValues="0.498039 0.498039"/><feFuncA type="linear" slope="1" intercept="0"/></feComponentTransfer><feGaussianBlur stdDeviation="0.448967 0.448967"/></filter><filter id="fx1" x="-10%" y="-10%" width="120%" height="120%" filterUnits="userSpaceOnUse" primitiveUnits="userSpaceOnUse"><feComponentTransfer color-interpolation-filters="sRGB"><feFuncR type="discrete" tableValues="0.498039 0.498039"/><feFuncG type="discrete" tableValues="0.498039 0.498039"/><feFuncB type="discrete" tableValues="0.498039 0.498039"/><feFuncA type="linear" slope="1" intercept="0"/></feComponentTransfer><feGaussianBlur stdDeviation="0.448967 0.448967"/></filter><clipPath id="clip2"><rect x="1" y="2" width="314" height="78"/></clipPath><clipPath id="clip3"><rect x="1" y="2" width="557" height="78"/></clipPath></defs><g><rect x="0" y="0" width="1280" height="720" fill="#FFFFFF"/><g clip-path="url(#clip2)" filter="url(#fx0)" transform="translate(486 277)"><g><path d="M240.033 53.0022C241.384 53.0022 242.332 53.4101 242.876 54.2259 243.42 55.0417 243.692 56.2466 243.692 57.8406L243.692 76.9831 220.233 76.9831 220.233 69.5079C222.987 69.0839 225.034 68.5881 226.374 68.0205 227.713 67.4528 229.083 66.5668 230.482 65.3624 231.878 64.1608 232.983 62.9296 233.797 61.6689 234.61 60.4082 235.466 58.5071 236.364 55.9655 236.669 55.0817 237.105 54.3668 237.675 53.821 238.244 53.2751 239.03 53.0022 240.033 53.0022ZM67.1838 49.1C68.2777 49.0549 69.1249 49.3553 69.7254 50.0013 70.326 50.6473 70.8002 51.6269 71.1479 52.9401 71.9055 55.7718 73.0081 58.4347 74.4558 60.9289 75.9034 63.4231 77.6874 65.769 79.8077 67.9666 81.4524 69.1677 83.7754 70.0605 86.7769 70.645L86.7769 78.366C83.0772 78.366 79.6662 77.5644 76.544 75.9611 74.9156 75.3374 73.8933 74.9512 73.477 74.8027 73.0606 74.6541 72.7044 74.5798 72.4084 74.5798 71.9463 74.5798 71.6141 74.6458 71.4116 74.7778 71.2092 74.9097 70.7947 75.3469 70.1683 76.0892 69.2845 77.1728 68.306 77.7146 67.2327 77.7146 64.6232 77.7146 63.3184 75.8933 63.3184 72.2508L63.3184 53.6103C63.3184 52.4049 63.6785 51.3636 64.3988 50.4866 65.1191 49.6096 66.0474 49.1474 67.1838 49.1ZM7.18376 49.1C8.27766 49.0549 9.12489 49.3553 9.72545 50.0013 10.326 50.6473 10.8002 51.6269 11.1479 52.9401 11.9055 55.7718 13.0081 58.4347 14.4558 60.9289 15.9034 63.4231 17.6874 65.769 19.8077 67.9666 21.4524 69.1677 23.7754 70.0605 26.7769 70.645L26.7769 78.366C23.0772 78.366 19.6662 77.5644 16.544 75.9611 14.9156 75.3374 13.8933 74.9512 13.477 74.8027 13.0606 74.6541 12.7044 74.5798 12.4084 74.5798 11.9463 74.5798 11.6141 74.6458 11.4116 74.7778 11.2092 74.9097 10.7947 75.3469 10.1683 76.0892 9.28449 77.1728 8.30596 77.7146 7.23274 77.7146 4.62316 77.7146 3.31836 75.8933 3.31836 72.2508L3.31836 53.6103C3.31836 52.4049 3.67851 51.3636 4.3988 50.4866 5.11909 49.6096 6.04741 49.1474 7.18376 49.1ZM230.425 25.2595C231.975 25.2595 233.026 25.8361 233.577 26.9893 233.946 27.6767 234.131 28.8857 234.131 30.6163L234.131 50.1278C234.131 51.9091 233.877 53.234 233.368 54.1026 232.86 54.9712 231.913 55.4055 230.528 55.4055 229.434 55.4055 228.581 55.0758 227.969 54.4165 227.358 53.7571 226.896 52.7858 226.585 51.5025 226.041 49.2973 225.299 47.6422 224.358 46.5371 223.417 45.4321 221.937 44.6373 219.92 44.153L219.92 36.7291C222.152 35.6494 223.693 34.6066 224.545 33.6009 225.396 32.5952 226.035 31.1848 226.464 29.3698 226.751 28.0016 227.202 26.9745 227.816 26.2885 228.43 25.6025 229.299 25.2595 230.425 25.2595ZM282.931 4.98801C290.782 4.98801 296.448 5.68108 299.929 7.06724 304.01 8.6934 306.614 11.0219 307.741 14.0527 311.395 17.7954 313.223 22.1212 313.223 27.0301 313.223 32.4937 311.993 36.9972 309.535 40.5407 307.099 44.0167 303.211 46.6047 297.871 48.3049 295.282 49.5681 290.315 50.1997 282.972 50.1997L282.972 42.8476C284.851 42.4123 286.033 42.0423 286.518 41.7378 287.004 41.4333 287.378 41.0691 287.642 40.6451 288.36 39.2699 288.719 37.5485 288.719 35.4809L288.719 19.0953C288.719 17.6258 288.619 16.5605 288.418 15.8993 288.217 15.238 287.751 14.5771 287.02 13.9164 286.333 13.253 284.97 12.7757 282.931 12.4845ZM255.518 4.98801 256.85 4.98801 280.726 4.98801 280.726 66.2074C280.726 67.3013 280.915 68.0616 281.293 68.4882 281.415 68.6406 281.535 68.7376 281.653 68.7793 281.77 68.8209 282.527 69.0205 283.924 69.3781 286.041 69.8613 287.1 71.1261 287.1 73.1724 287.1 74.4416 286.654 75.3178 285.763 75.8011 284.613 76.5891 283.168 76.9831 281.428 76.9831L279.68 76.9831 256.85 76.9831 255.518 76.9831C254.059 76.9831 252.88 76.6718 251.981 76.0492 251.081 75.4266 250.632 74.502 250.632 73.2753 250.632 71.3781 251.317 70.2069 252.687 69.7617 254.212 69.2534 255.023 68.9771 255.12 68.9327 255.218 68.8884 255.323 68.7805 255.438 68.6091 255.717 68.2368 255.856 67.5728 255.856 66.6172L255.856 15.3548C255.856 14.41 255.717 13.7512 255.437 13.3784 255.323 13.2064 255.217 13.0987 255.121 13.0551 255.025 13.0116 254.223 12.7387 252.716 12.2363 251.327 11.7846 250.632 10.6047 250.632 8.69666 250.632 7.48031 251.085 6.55811 251.993 5.93007 252.9 5.30202 254.075 4.98801 255.518 4.98801ZM220.181 4.98801 242.96 4.98801 242.96 24.164C242.96 25.4679 242.659 26.4729 242.055 27.1787 241.452 27.8846 240.534 28.2375 239.303 28.2375 238.277 28.2375 237.51 28.0092 237.004 27.5526 236.497 27.096 236.061 26.2992 235.695 25.1623 234.463 21.3995 232.67 18.5406 230.315 16.5854 227.96 14.6303 224.582 13.4268 220.181 12.9751ZM192.518 4.98801 193.85 4.98801 217.726 4.98801 217.726 76.9831 193.85 76.9831 192.518 76.9831C191.059 76.9831 189.88 76.6718 188.981 76.0492 188.081 75.4266 187.632 74.502 187.632 73.2753 187.632 71.3781 188.317 70.2069 189.687 69.7617 191.212 69.2534 192.023 68.9771 192.121 68.9327 192.218 68.8884 192.323 68.7805 192.438 68.6091 192.717 68.2368 192.856 67.5728 192.856 66.6172L192.856 15.3548C192.856 14.41 192.717 13.7512 192.437 13.3784 192.323 13.2064 192.217 13.0987 192.121 13.0551 192.025 13.0116 191.223 12.7387 189.716 12.2363 188.327 11.7846 187.632 10.6047 187.632 8.69666 187.632 7.48031 188.085 6.55811 188.993 5.93007 189.9 5.30202 191.075 4.98801 192.518 4.98801ZM166.242 4.98801 178.792 4.98801C180.564 4.98801 181.684 5.14175 182.154 5.44924 183.508 6.29225 184.185 7.37446 184.185 8.69585 184.185 9.54594 183.997 10.2472 183.62 10.7996 183.244 11.352 182.476 11.8527 181.317 12.3016L179.147 13.4331C178.255 13.8511 177.346 14.7597 176.419 16.1589 175.492 17.5581 174.689 19.4305 174.009 21.7761L164.988 51.736 161.201 41.0852 167.097 19.2406C167.454 17.9344 167.65 17.129 167.683 16.8242 167.746 16.3088 167.685 15.8606 167.501 15.4797 166.911 14.1871 166.088 13.3697 165.034 13.0274L163.44 12.4461C161.77 11.8872 160.936 10.7054 160.936 8.90075 160.936 7.60222 161.434 6.62546 162.43 5.97047 163.427 5.3155 164.697 4.98801 166.242 4.98801ZM126.798 4.98801 149.593 4.98801C151.037 4.98801 152.081 5.02937 152.724 5.11209 153.367 5.19482 153.976 5.4087 154.552 5.75374 154.999 6.06504 155.382 6.51702 155.702 7.10969 156.021 7.70235 156.181 8.28223 156.181 8.84932 156.181 10.5582 155.367 11.7816 153.739 12.5196 153.043 12.8657 152.588 13.1896 152.374 13.4911 152.161 13.7926 152.054 14.2598 152.054 14.8927 152.054 15.3667 152.105 15.8389 152.208 16.3091L164.112 58.0072 158.985 76.9831 143.882 76.9831 125.407 15.0495C125.163 14.2266 124.971 13.7206 124.832 13.5315 124.693 13.3424 124.417 13.152 124.006 12.9604 122.838 12.4864 122.013 11.985 121.532 11.4563 121.051 10.9276 120.811 10.144 120.811 9.10565 120.811 7.69827 121.437 6.6022 122.691 5.81741 123.588 5.26447 124.957 4.98801 126.798 4.98801ZM91.3223 3.86145C94.186 4.01383 96.4112 4.29724 97.9979 4.71167 99.5846 5.12611 101.871 5.95918 104.857 7.21091 105.158 7.33119 105.467 7.39133 105.784 7.39133 106.066 7.39133 106.286 7.27676 106.444 7.04765L107.775 5.28597C108.347 4.49521 109.203 4.09982 110.341 4.09982 111.661 4.09982 112.617 4.565 113.211 5.49536 113.805 6.42573 114.102 7.69746 114.102 9.31055L114.102 26.2122C114.102 27.453 113.72 28.5013 112.958 29.3571 112.196 30.2129 111.204 30.6408 109.983 30.6408 109.061 30.6408 108.193 30.3298 107.38 29.7078 106.974 29.3464 106.653 28.919 106.416 28.4257 106.18 27.9323 105.985 27.2672 105.83 26.4301 105.436 24.6712 104.804 22.9541 103.934 21.279 103.064 19.6039 101.95 17.5823 100.591 15.2144 98.456 13.6214 95.3664 12.3425 91.3223 11.3775ZM31.3223 3.86145C34.186 4.01383 36.4112 4.29724 37.9979 4.71167 39.5846 5.12611 41.8711 5.95918 44.8573 7.21091 45.1582 7.33119 45.4671 7.39133 45.7838 7.39133 46.0657 7.39133 46.2859 7.27676 46.4442 7.04765L47.7749 5.28597C48.3474 4.49521 49.2029 4.09982 50.3415 4.09982 51.6607 4.09982 52.6172 4.565 53.2109 5.49536 53.8047 6.42573 54.1016 7.69746 54.1016 9.31055L54.1016 26.2122C54.1016 27.453 53.7205 28.5013 52.9583 29.3571 52.1961 30.2129 51.2044 30.6408 49.9831 30.6408 49.0606 30.6408 48.1929 30.3298 47.3798 29.7078 46.9738 29.3464 46.6527 28.919 46.4165 28.4257 46.1803 27.9323 45.9849 27.2672 45.8304 26.4301 45.4358 24.6712 44.8037 22.9541 43.934 21.279 43.0643 19.6039 41.95 17.5823 40.5911 15.2144 38.456 13.6214 35.3664 12.3425 31.3223 11.3775ZM89.3892 3.60512 89.3892 11.3277C86.9477 11.9939 85.2489 12.8472 84.2927 13.8878 83.3365 14.9284 82.8584 16.2024 82.8584 17.7099 82.8584 19.2202 83.2621 20.5352 84.0695 21.6549 84.8768 22.7747 86.0239 23.8254 87.5108 24.8072 89.4172 25.6954 92.8581 27.2304 97.8334 29.4122 101.019 30.7908 103.473 32.0267 105.193 33.1201 106.914 34.2134 108.247 35.4883 109.194 36.9447 114.068 41.6114 116.505 46.9958 116.505 53.0977 116.505 57.6703 115.359 61.8724 113.067 65.7041 110.775 69.5357 107.63 72.5403 103.631 74.7178 101.535 75.8356 99.2177 76.7231 96.6783 77.3803 94.1389 78.0374 91.4132 78.366 88.501 78.366L88.501 70.6638C91.8279 69.8627 94.0615 68.9074 95.202 67.798 96.3424 66.6886 96.9126 65.1856 96.9126 63.2889 96.9126 61.3319 96.0456 59.6176 94.3117 58.146 92.9457 57.0199 90.3949 55.6411 86.6593 54.0095 82.3719 52.1303 79.4551 50.8005 77.9089 50.0201 76.3627 49.2396 75.0517 48.3604 73.9758 47.3824 66.836 42.4866 63.2661 36.044 63.2661 28.0547 63.2661 23.9914 64.1038 20.2406 65.7792 16.8022 67.4547 13.3637 69.8042 10.5835 72.828 8.46156 76.981 5.55264 82.5014 3.93383 89.3892 3.60512ZM29.3892 3.60512 29.3892 11.3277C26.9477 11.9939 25.2489 12.8472 24.2927 13.8878 23.3365 14.9284 22.8584 16.2024 22.8584 17.7099 22.8584 19.2202 23.2621 20.5352 24.0695 21.6549 24.8768 22.7747 26.0239 23.8254 27.5108 24.8072 29.4172 25.6954 32.8581 27.2304 37.8334 29.4122 41.0194 30.7908 43.4726 32.0267 45.1932 33.1201 46.9138 34.2134 48.2473 35.4883 49.1937 36.9447 54.0678 41.6114 56.5049 46.9958 56.5049 53.0977 56.5049 57.6703 55.359 61.8724 53.0673 65.7041 50.7755 69.5357 47.6301 72.5403 43.6311 74.7178 41.5353 75.8356 39.2177 76.7231 36.6783 77.3803 34.1389 78.0374 31.4132 78.366 28.501 78.366L28.501 70.6638C31.8279 69.8627 34.0615 68.9074 35.202 67.798 36.3424 66.6886 36.9126 65.1856 36.9126 63.2889 36.9126 61.3319 36.0456 59.6176 34.3117 58.146 32.9457 57.0199 30.3949 55.6411 26.6593 54.0095 22.3719 52.1303 19.4551 50.8005 17.9089 50.0201 16.3627 49.2396 15.0517 48.3604 13.9757 47.3824 6.836 42.4866 3.26612 36.044 3.26612 28.0547 3.26612 23.9914 4.10382 20.2406 5.77923 16.8022 7.45465 13.3637 9.80423 10.5835 12.828 8.46156 16.981 5.55264 22.5014 3.93383 29.3892 3.60512Z" stroke="#FFFFFF" stroke-linejoin="round" stroke-miterlimit="10" fill-rule="evenodd"/></g></g><path d="M723.168 327.137C724.519 327.137 725.467 327.545 726.011 328.36 726.555 329.176 726.826 330.381 726.826 331.975L726.826 351.118 703.368 351.118 703.368 343.642C706.122 343.218 708.169 342.723 709.508 342.155 710.848 341.587 712.217 340.701 713.616 339.497 715.013 338.295 716.118 337.064 716.931 335.803 717.745 334.543 718.6 332.642 719.499 330.1 719.803 329.216 720.24 328.501 720.809 327.956 721.378 327.41 722.165 327.137 723.168 327.137ZM550.318 323.235C551.412 323.189 552.259 323.49 552.86 324.136 553.461 324.782 553.935 325.761 554.283 327.075 555.04 329.906 556.143 332.569 557.59 335.063 559.038 337.558 560.822 339.904 562.942 342.101 564.587 343.302 566.91 344.195 569.911 344.78L569.911 352.501C566.212 352.501 562.801 351.699 559.679 350.096 558.05 349.472 557.028 349.086 556.612 348.937 556.195 348.789 555.839 348.714 555.543 348.714 555.081 348.714 554.749 348.78 554.546 348.912 554.344 349.044 553.929 349.481 553.303 350.224 552.419 351.307 551.441 351.849 550.367 351.849 547.758 351.849 546.453 350.028 546.453 346.385L546.453 327.745C546.453 326.539 546.813 325.498 547.533 324.621 548.254 323.744 549.182 323.282 550.318 323.235ZM490.318 323.235C491.412 323.189 492.259 323.49 492.86 324.136 493.461 324.782 493.935 325.761 494.283 327.075 495.04 329.906 496.143 332.569 497.59 335.063 499.038 337.558 500.822 339.904 502.942 342.101 504.587 343.302 506.91 344.195 509.911 344.78L509.911 352.501C506.212 352.501 502.801 351.699 499.679 350.096 498.05 349.472 497.028 349.086 496.612 348.937 496.195 348.789 495.839 348.714 495.543 348.714 495.081 348.714 494.749 348.78 494.546 348.912 494.344 349.044 493.929 349.481 493.303 350.224 492.419 351.307 491.441 351.849 490.367 351.849 487.758 351.849 486.453 350.028 486.453 346.385L486.453 327.745C486.453 326.539 486.813 325.498 487.533 324.621 488.254 323.744 489.182 323.282 490.318 323.235ZM713.56 299.394C715.11 299.394 716.16 299.971 716.711 301.124 717.081 301.811 717.265 303.02 717.265 304.751L717.265 324.262C717.265 326.044 717.011 327.369 716.503 328.237 715.995 329.106 715.048 329.54 713.662 329.54 712.569 329.54 711.716 329.21 711.104 328.551 710.492 327.892 710.03 326.92 709.719 325.637 709.175 323.432 708.433 321.777 707.492 320.672 706.551 319.567 705.072 318.772 703.055 318.288L703.055 310.864C705.286 309.784 706.828 308.741 707.679 307.735 708.53 306.73 709.17 305.319 709.598 303.504 709.886 302.136 710.336 301.109 710.95 300.423 711.564 299.737 712.434 299.394 713.56 299.394ZM766.065 279.123C773.917 279.123 779.583 279.816 783.064 281.202 787.145 282.828 789.748 285.156 790.875 288.187 794.53 291.93 796.357 296.256 796.357 301.165 796.357 306.628 795.128 311.132 792.67 314.675 790.234 318.151 786.346 320.739 781.006 322.44 778.416 323.703 773.45 324.334 766.107 324.334L766.107 316.982C767.985 316.547 769.167 316.177 769.653 315.872 770.138 315.568 770.513 315.204 770.776 314.78 771.495 313.404 771.854 311.683 771.854 309.616L771.854 293.23C771.854 291.76 771.753 290.695 771.552 290.034 771.351 289.373 770.885 288.712 770.155 288.051 769.468 287.388 768.104 286.91 766.065 286.619ZM738.653 279.123 739.984 279.123 763.86 279.123 763.86 340.342C763.86 341.436 764.049 342.196 764.427 342.623 764.55 342.775 764.67 342.872 764.787 342.914 764.904 342.955 765.662 343.155 767.059 343.513 769.176 343.996 770.234 345.261 770.234 347.307 770.234 348.576 769.789 349.452 768.898 349.936 767.747 350.724 766.302 351.118 764.562 351.118L762.814 351.118 739.984 351.118 738.653 351.118C737.194 351.118 736.015 350.806 735.115 350.184 734.216 349.561 733.766 348.637 733.766 347.41 733.766 345.513 734.452 344.341 735.822 343.896 737.347 343.388 738.158 343.112 738.255 343.067 738.352 343.023 738.458 342.915 738.572 342.744 738.851 342.371 738.991 341.707 738.991 340.752L738.991 289.489C738.991 288.545 738.851 287.886 738.571 287.513 738.457 287.341 738.352 287.233 738.256 287.19 738.16 287.146 737.358 286.873 735.851 286.371 734.461 285.919 733.766 284.739 733.766 282.831 733.766 281.615 734.22 280.693 735.127 280.065 736.034 279.437 737.21 279.123 738.653 279.123ZM703.316 279.123 726.095 279.123 726.095 298.299C726.095 299.603 725.793 300.607 725.19 301.313 724.586 302.019 723.669 302.372 722.438 302.372 721.411 302.372 720.645 302.144 720.138 301.687 719.631 301.231 719.195 300.434 718.83 299.297 717.598 295.534 715.805 292.675 713.45 290.72 711.095 288.765 707.717 287.561 703.316 287.11ZM675.653 279.123 676.984 279.123 700.86 279.123 700.86 351.118 676.984 351.118 675.653 351.118C674.194 351.118 673.015 350.806 672.115 350.184 671.216 349.561 670.766 348.637 670.766 347.41 670.766 345.513 671.452 344.341 672.822 343.896 674.347 343.388 675.158 343.112 675.255 343.067 675.352 343.023 675.458 342.915 675.572 342.744 675.851 342.371 675.991 341.707 675.991 340.752L675.991 289.489C675.991 288.545 675.851 287.886 675.571 287.513 675.457 287.341 675.352 287.233 675.256 287.19 675.16 287.146 674.358 286.873 672.851 286.371 671.461 285.919 670.766 284.739 670.766 282.831 670.766 281.615 671.22 280.693 672.127 280.065 673.034 279.437 674.21 279.123 675.653 279.123ZM649.376 279.123 661.927 279.123C663.698 279.123 664.819 279.276 665.289 279.584 666.643 280.427 667.32 281.509 667.32 282.83 667.32 283.681 667.131 284.382 666.755 284.934 666.378 285.487 665.61 285.987 664.452 286.436L662.282 287.568C661.39 287.986 660.48 288.894 659.553 290.293 658.626 291.693 657.823 293.565 657.144 295.911L648.122 325.871 644.335 315.22 650.231 293.375C650.589 292.069 650.784 291.264 650.818 290.959 650.881 290.443 650.82 289.995 650.635 289.614 650.045 288.322 649.223 287.504 648.168 287.162L646.575 286.581C644.905 286.022 644.07 284.84 644.07 283.035 644.07 281.737 644.568 280.76 645.565 280.105 646.561 279.45 647.832 279.123 649.376 279.123ZM609.932 279.123 632.728 279.123C634.172 279.123 635.215 279.164 635.858 279.247 636.501 279.329 637.11 279.543 637.686 279.888 638.133 280.2 638.516 280.652 638.836 281.244 639.156 281.837 639.316 282.417 639.316 282.984 639.316 284.693 638.502 285.916 636.874 286.654 636.177 287 635.722 287.324 635.509 287.626 635.295 287.927 635.188 288.394 635.188 289.027 635.188 289.501 635.24 289.973 635.343 290.444L647.247 332.142 642.12 351.118 627.017 351.118 608.542 289.184C608.298 288.361 608.106 287.855 607.966 287.666 607.827 287.477 607.552 287.287 607.14 287.095 605.972 286.621 605.148 286.12 604.667 285.591 604.186 285.062 603.945 284.279 603.945 283.24 603.945 281.833 604.572 280.737 605.825 279.952 606.723 279.399 608.092 279.123 609.932 279.123ZM574.457 277.996C577.321 278.148 579.546 278.432 581.133 278.846 582.719 279.261 585.006 280.094 587.992 281.345 588.293 281.466 588.602 281.526 588.918 281.526 589.2 281.526 589.42 281.411 589.579 281.182L590.909 279.421C591.482 278.63 592.338 278.234 593.476 278.234 594.795 278.234 595.752 278.7 596.346 279.63 596.939 280.56 597.236 281.832 597.236 283.445L597.236 300.347C597.236 301.588 596.855 302.636 596.093 303.492 595.331 304.348 594.339 304.775 593.118 304.775 592.195 304.775 591.327 304.464 590.514 303.842 590.108 303.481 589.787 303.054 589.551 302.56 589.315 302.067 589.12 301.402 588.965 300.565 588.57 298.806 587.938 297.089 587.069 295.414 586.199 293.738 585.085 291.717 583.726 289.349 581.591 287.756 578.501 286.477 574.457 285.512ZM514.457 277.996C517.321 278.148 519.546 278.432 521.133 278.846 522.719 279.261 525.006 280.094 527.992 281.345 528.293 281.466 528.602 281.526 528.918 281.526 529.2 281.526 529.42 281.411 529.579 281.182L530.909 279.421C531.482 278.63 532.338 278.234 533.476 278.234 534.795 278.234 535.752 278.7 536.346 279.63 536.939 280.56 537.236 281.832 537.236 283.445L537.236 300.347C537.236 301.588 536.855 302.636 536.093 303.492 535.331 304.348 534.339 304.775 533.118 304.775 532.195 304.775 531.327 304.464 530.514 303.842 530.108 303.481 529.787 303.054 529.551 302.56 529.315 302.067 529.12 301.402 528.965 300.565 528.57 298.806 527.938 297.089 527.069 295.414 526.199 293.738 525.085 291.717 523.726 289.349 521.591 287.756 518.501 286.477 514.457 285.512ZM572.524 277.74 572.524 285.462C570.082 286.128 568.384 286.982 567.427 288.022 566.471 289.063 565.993 290.337 565.993 291.845 565.993 293.355 566.397 294.67 567.204 295.789 568.011 296.909 569.159 297.96 570.645 298.942 572.552 299.83 575.993 301.365 580.968 303.547 584.154 304.925 586.607 306.161 588.328 307.255 590.048 308.348 591.382 309.623 592.328 311.079 597.202 315.746 599.639 321.13 599.639 327.232 599.639 331.805 598.494 336.007 596.202 339.839 593.91 343.67 590.765 346.675 586.766 348.852 584.67 349.97 582.352 350.858 579.813 351.515 577.273 352.172 574.548 352.501 571.636 352.501L571.636 344.798C574.962 343.997 577.196 343.042 578.337 341.933 579.477 340.823 580.047 339.32 580.047 337.424 580.047 335.466 579.18 333.752 577.446 332.281 576.08 331.155 573.529 329.776 569.794 328.144 565.506 326.265 562.59 324.935 561.043 324.155 559.497 323.374 558.186 322.495 557.11 321.517 549.971 316.621 546.401 310.179 546.401 302.189 546.401 298.126 547.238 294.375 548.914 290.937 550.589 287.498 552.939 284.718 555.963 282.596 560.116 279.687 565.636 278.068 572.524 277.74ZM512.524 277.74 512.524 285.462C510.082 286.128 508.384 286.982 507.427 288.022 506.471 289.063 505.993 290.337 505.993 291.845 505.993 293.355 506.397 294.67 507.204 295.789 508.011 296.909 509.159 297.96 510.645 298.942 512.552 299.83 515.993 301.365 520.968 303.547 524.154 304.925 526.607 306.161 528.328 307.255 530.048 308.348 531.382 309.623 532.328 311.079 537.202 315.746 539.639 321.13 539.639 327.232 539.639 331.805 538.494 336.007 536.202 339.839 533.91 343.67 530.765 346.675 526.766 348.852 524.67 349.97 522.352 350.858 519.813 351.515 517.273 352.172 514.548 352.501 511.636 352.501L511.636 344.798C514.962 343.997 517.196 343.042 518.337 341.933 519.477 340.823 520.047 339.32 520.047 337.424 520.047 335.466 519.18 333.752 517.446 332.281 516.08 331.155 513.529 329.776 509.794 328.144 505.506 326.265 502.59 324.935 501.043 324.155 499.497 323.374 498.186 322.495 497.11 321.517 489.971 316.621 486.401 310.179 486.401 302.189 486.401 298.126 487.238 294.375 488.914 290.937 490.589 287.498 492.939 284.718 495.963 282.596 500.116 279.687 505.636 278.068 512.524 277.74Z" stroke="#FFFFFF" stroke-linejoin="round" stroke-miterlimit="10" fill-rule="evenodd"/><text fill="#000000" fill-opacity="0" font-family="Arial,Arial_MSFontService,sans-serif" font-size="74.7609" x="486.401" y="343.155">SSVEP</text><g clip-path="url(#clip3)" filter="url(#fx1)" transform="translate(362 405)"><g><path d="M552.211 54.5695C553.355 54.5695 554.302 54.9913 555.052 55.8349 555.802 56.6784 556.177 57.6801 556.177 58.8399 556.177 60.5438 555.554 62.5507 554.308 64.8604 553.062 67.1701 551.475 69.2874 549.549 71.2124 547.218 73.5417 544.805 75.2801 542.311 76.4276 539.816 77.5751 536.636 78.2212 532.771 78.366L532.771 70.1193C535.899 69.8793 538.7 69.045 541.175 67.6164 542.957 66.3962 544.425 65.0097 545.579 63.4567 546.733 61.9037 547.599 60.1958 548.176 58.3329 548.567 57.0763 549.077 56.1349 549.703 55.5088 550.33 54.8826 551.166 54.5695 552.211 54.5695ZM193.78 53.0022C195.131 53.0022 196.079 53.4101 196.623 54.2259 197.167 55.0417 197.439 56.2466 197.439 57.8406L197.439 76.9831 173.98 76.9831 173.98 69.5079C176.734 69.0839 178.781 68.5881 180.12 68.0205 181.46 67.4528 182.829 66.5668 184.228 65.3624 185.625 64.1608 186.73 62.9296 187.543 61.6689 188.357 60.4082 189.213 58.5071 190.111 55.9655 190.415 55.0817 190.852 54.3668 191.421 53.821 191.991 53.2751 192.777 53.0022 193.78 53.0022ZM184.172 25.2595C185.722 25.2595 186.772 25.8361 187.323 26.9893 187.693 27.6767 187.878 28.8857 187.878 30.6163L187.878 50.1278C187.878 51.9091 187.623 53.234 187.115 54.1026 186.607 54.9712 185.66 55.4055 184.274 55.4055 183.181 55.4055 182.328 55.0758 181.716 54.4165 181.104 53.7571 180.643 52.7858 180.331 51.5025 179.788 49.2973 179.045 47.6422 178.104 46.5371 177.163 45.4321 175.684 44.6373 173.667 44.153L173.667 36.7291C175.898 35.6494 177.44 34.6066 178.291 33.6009 179.142 32.5952 179.782 31.1848 180.21 29.3698 180.498 28.0016 180.948 26.9745 181.562 26.2885 182.176 25.6025 183.046 25.2595 184.172 25.2595ZM25.5308 17.9973 29.1611 29.64 19.969 63.3608C19.7954 63.9698 19.7086 64.6457 19.7086 65.3886 19.7086 67.1078 20.4947 68.3285 22.067 69.0507L23.8524 69.8703C25.4089 70.5805 26.1871 71.7495 26.1871 73.3773 26.1871 75.7812 24.5759 76.9831 21.3535 76.9831L8.34181 76.9831C6.84572 76.9831 5.61453 76.6348 4.64825 75.9382 3.68197 75.2416 3.19883 74.2516 3.19883 72.9683 3.19883 71.525 4.15695 70.3898 6.07318 69.5625 7.37824 68.99 8.33514 68.4775 8.94386 68.025 9.55258 67.5724 10.0926 67.0191 10.5639 66.3649 11.5136 64.9755 12.2796 63.1804 12.8619 60.9795ZM463.265 4.98801 464.597 4.98801 487.427 4.98801 488.758 4.98801C490.21 4.98801 491.396 5.30652 492.316 5.94353 493.237 6.58056 493.697 7.49827 493.697 8.69666 493.697 10.5933 492.994 11.7699 491.589 12.2265 490.077 12.7305 489.275 13.003 489.184 13.0441 489.093 13.0852 488.991 13.1904 488.879 13.3596 488.608 13.721 488.472 14.386 488.472 15.3548L488.472 66.6172C488.472 67.5968 488.608 68.2673 488.879 68.6286 488.991 68.7968 489.092 68.9016 489.182 68.9429 489.273 68.9843 490.065 69.254 491.56 69.7519 492.984 70.2151 493.697 71.3895 493.697 73.2753 493.697 74.484 493.241 75.4042 492.328 76.0358 491.416 76.6673 490.226 76.9831 488.758 76.9831L487.427 76.9831 464.597 76.9831 463.265 76.9831C461.806 76.9831 460.627 76.6718 459.728 76.0492 458.828 75.4266 458.379 74.502 458.379 73.2753 458.379 71.3781 459.064 70.2069 460.434 69.7617 461.959 69.2534 462.77 68.9771 462.867 68.9327 462.964 68.8884 463.07 68.7805 463.184 68.6091 463.464 68.2368 463.603 67.5728 463.603 66.6172L463.603 15.3548C463.603 14.41 463.463 13.7512 463.184 13.3784 463.069 13.2064 462.964 13.0987 462.868 13.0551 462.772 13.0116 461.97 12.7387 460.463 12.2363 459.073 11.7846 458.379 10.6047 458.379 8.69666 458.379 7.48031 458.832 6.55811 459.739 5.93007 460.647 5.30202 461.822 4.98801 463.265 4.98801ZM421.938 4.98801C424.413 4.98801 426.592 5.08978 428.478 5.29332 432.521 5.73904 436.649 7.62534 440.861 10.9522 445.054 14.185 448.156 18.3777 450.168 23.5305 452.24 28.7273 453.276 34.4518 453.276 40.7039 453.276 47.8045 451.956 54.1433 449.317 59.7203 446.677 65.2973 442.874 69.6997 437.908 72.9275 435.504 74.4835 433.252 75.5484 431.153 76.1223 429.054 76.6962 425.983 76.9831 421.938 76.9831L421.938 69.6123C423.784 69.1291 424.933 68.7637 425.387 68.5164 425.841 68.269 426.182 67.9647 426.41 67.6033 426.952 66.8082 427.307 65.9909 427.475 65.1514 427.643 64.312 427.727 63.0255 427.727 61.2922L427.727 20.888C427.727 18.5766 427.396 16.7428 426.733 15.3866 426.37 14.6056 425.933 14.0401 425.421 13.6898 424.909 13.3396 423.748 12.9656 421.938 12.5678ZM394.265 4.98801 395.597 4.98801 419.472 4.98801 419.472 76.9831 395.597 76.9831 394.265 76.9831C392.806 76.9831 391.627 76.6718 390.728 76.0492 389.828 75.4266 389.379 74.502 389.379 73.2753 389.379 71.3781 390.064 70.2069 391.434 69.7617 392.959 69.2534 393.77 68.9771 393.867 68.9327 393.964 68.8884 394.07 68.7805 394.184 68.6091 394.464 68.2368 394.603 67.5728 394.603 66.6172L394.603 15.3548C394.603 14.41 394.463 13.7512 394.184 13.3784 394.069 13.2064 393.964 13.0987 393.868 13.0551 393.772 13.0116 392.97 12.7387 391.463 12.2363 390.073 11.7846 389.379 10.6047 389.379 8.69666 389.379 7.48031 389.832 6.55811 390.739 5.93007 391.647 5.30202 392.822 4.98801 394.265 4.98801ZM284.265 4.98801 285.597 4.98801 308.427 4.98801 309.758 4.98801C311.21 4.98801 312.396 5.30652 313.316 5.94353 314.237 6.58056 314.697 7.49827 314.697 8.69666 314.697 10.5933 313.994 11.7699 312.589 12.2265 311.077 12.7305 310.275 13.003 310.184 13.0441 310.093 13.0852 309.991 13.1904 309.879 13.3596 309.608 13.721 309.472 14.386 309.472 15.3548L309.472 66.6172C309.472 67.5968 309.608 68.2673 309.879 68.6286 309.991 68.7968 310.092 68.9016 310.182 68.9429 310.273 68.9843 311.065 69.254 312.56 69.7519 313.984 70.2151 314.697 71.3895 314.697 73.2753 314.697 74.484 314.241 75.4042 313.328 76.0358 312.416 76.6673 311.226 76.9831 309.758 76.9831L308.427 76.9831 285.597 76.9831 284.265 76.9831C282.806 76.9831 281.627 76.6718 280.728 76.0492 279.828 75.4266 279.379 74.502 279.379 73.2753 279.379 71.3781 280.064 70.2069 281.434 69.7617 282.959 69.2534 283.77 68.9771 283.867 68.9327 283.964 68.8884 284.07 68.7805 284.184 68.6091 284.464 68.2368 284.603 67.5728 284.603 66.6172L284.603 15.3548C284.603 14.41 284.463 13.7512 284.184 13.3784 284.069 13.2064 283.964 13.0987 283.868 13.0551 283.772 13.0116 282.97 12.7387 281.463 12.2363 280.073 11.7846 279.379 10.6047 279.379 8.69666 279.379 7.48031 279.832 6.55811 280.739 5.93007 281.647 5.30202 282.822 4.98801 284.265 4.98801ZM236.416 4.98801 238.792 4.98801C242.542 4.98801 245.801 5.13005 248.569 5.41414 252.743 5.81034 256.452 7.16765 259.697 9.48607 264.475 12.8804 266.865 17.6873 266.865 23.9068 266.865 28.9877 265.256 33.1761 262.039 36.472 260.7 37.8484 259.138 38.9701 257.352 39.8374 255.566 40.7046 253.197 41.2103 250.244 41.3546 252.815 41.3703 254.992 41.6841 256.776 42.2958 258.56 42.9075 260.177 43.7386 261.627 44.7889 263.212 45.9568 264.429 47.3509 265.278 48.9711 266.127 50.5912 266.551 52.2914 266.551 54.0716L266.551 64.6718C266.551 65.0424 266.542 65.2278 266.523 65.2278 266.549 65.2278 266.589 65.2064 266.642 65.1637 266.695 65.1209 266.84 64.9469 267.076 64.6416 268.183 63.1515 269.355 62.4065 270.592 62.4065 271.479 62.4065 272.316 62.8248 273.103 63.6616 273.89 64.4984 274.284 65.3478 274.284 66.2098 274.284 67.4686 273.736 68.9221 272.642 70.5703 271.547 72.2185 270.109 73.7501 268.328 75.1651 267.002 76.2302 265.467 77.0258 263.722 77.5521 261.977 78.0784 259.929 78.3415 257.578 78.3415 252.777 78.3415 249.015 76.9532 246.291 74.1765 243.567 71.3999 242.205 67.566 242.205 62.675L242.205 54.0716C242.205 52.2468 242.188 51.1806 242.153 50.8731 242.007 49.7096 241.579 48.6804 240.869 47.7857 240.11 46.872 238.64 46.2943 236.458 46.0526L236.458 38.7316C238.699 38.4002 240.158 37.9414 240.832 37.3553 241.327 36.9117 241.679 36.3679 241.889 35.7238 242.1 35.0797 242.205 34.0428 242.205 32.6131L242.205 19.0438C242.205 17.1488 241.857 15.7612 241.161 14.8809 240.466 14.0006 238.884 13.2135 236.416 12.5196ZM209.265 4.98801 210.597 4.98801 234.472 4.98801 234.472 66.2074C234.472 67.3013 234.661 68.0616 235.04 68.4882 235.162 68.6406 235.282 68.7376 235.399 68.7793 235.517 68.8209 236.274 69.0205 237.671 69.3781 239.788 69.8613 240.846 71.1261 240.846 73.1724 240.846 74.4416 240.401 75.3178 239.51 75.8011 238.359 76.5891 236.914 76.9831 235.174 76.9831L233.427 76.9831 210.597 76.9831 209.265 76.9831C207.806 76.9831 206.627 76.6718 205.728 76.0492 204.828 75.4266 204.379 74.502 204.379 73.2753 204.379 71.3781 205.064 70.2069 206.434 69.7617 207.959 69.2534 208.77 68.9771 208.867 68.9327 208.964 68.8884 209.07 68.7805 209.184 68.6091 209.464 68.2368 209.603 67.5728 209.603 66.6172L209.603 15.3548C209.603 14.41 209.463 13.7512 209.184 13.3784 209.069 13.2064 208.964 13.0987 208.868 13.0551 208.772 13.0116 207.97 12.7387 206.463 12.2363 205.073 11.7846 204.379 10.6047 204.379 8.69666 204.379 7.48031 204.832 6.55811 205.739 5.93007 206.647 5.30202 207.822 4.98801 209.265 4.98801ZM173.928 4.98801 196.707 4.98801 196.707 24.164C196.707 25.4679 196.405 26.4729 195.802 27.1787 195.198 27.8846 194.281 28.2375 193.05 28.2375 192.023 28.2375 191.257 28.0092 190.75 27.5526 190.244 27.096 189.807 26.2992 189.442 25.1623 188.21 21.3995 186.417 18.5406 184.062 16.5854 181.707 14.6303 178.329 13.4268 173.928 12.9751ZM146.265 4.98801 147.597 4.98801 171.472 4.98801 171.472 76.9831 147.597 76.9831 146.265 76.9831C144.806 76.9831 143.627 76.6718 142.728 76.0492 141.828 75.4266 141.379 74.502 141.379 73.2753 141.379 71.3781 142.064 70.2069 143.434 69.7617 144.959 69.2534 145.77 68.9771 145.867 68.9327 145.964 68.8884 146.07 68.7805 146.184 68.6091 146.464 68.2368 146.603 67.5728 146.603 66.6172L146.603 15.3548C146.603 14.41 146.463 13.7512 146.184 13.3784 146.069 13.2064 145.964 13.0987 145.868 13.0551 145.772 13.0116 144.97 12.7387 143.463 12.2363 142.073 11.7846 141.379 10.6047 141.379 8.69666 141.379 7.48031 141.832 6.55811 142.739 5.93007 143.647 5.30202 144.822 4.98801 146.265 4.98801ZM105.677 4.98801C113.529 4.98801 119.195 5.68108 122.676 7.06724 126.757 8.6934 129.36 11.0219 130.488 14.0527 134.142 17.7954 135.969 22.1212 135.969 27.0301 135.969 32.4937 134.74 36.9972 132.282 40.5407 129.846 44.0167 125.958 46.6047 120.618 48.3049 118.029 49.5681 113.062 50.1997 105.719 50.1997L105.719 42.8476C107.598 42.4123 108.78 42.0423 109.265 41.7378 109.751 41.4333 110.125 41.0691 110.388 40.6451 111.107 39.2699 111.466 37.5485 111.466 35.4809L111.466 19.0953C111.466 17.6258 111.365 16.5605 111.164 15.8993 110.963 15.238 110.497 14.5771 109.767 13.9164 109.08 13.253 107.716 12.7757 105.677 12.4845ZM78.2652 4.98801 79.5966 4.98801 103.472 4.98801 103.472 66.2074C103.472 67.3013 103.661 68.0616 104.04 68.4882 104.162 68.6406 104.282 68.7376 104.399 68.7793 104.517 68.8209 105.274 69.0205 106.671 69.3781 108.788 69.8613 109.846 71.1261 109.846 73.1724 109.846 74.4416 109.401 75.3178 108.51 75.8011 107.359 76.5891 105.914 76.9831 104.174 76.9831L102.427 76.9831 79.5966 76.9831 78.2652 76.9831C76.8061 76.9831 75.6269 76.6718 74.7275 76.0492 73.8282 75.4266 73.3785 74.502 73.3785 73.2753 73.3785 71.3781 74.0637 70.2069 75.4341 69.7617 76.959 69.2534 77.77 68.9771 77.8672 68.9327 77.9643 68.8884 78.0701 68.7805 78.1843 68.6091 78.4635 68.2368 78.6031 67.5728 78.6031 66.6172L78.6031 15.3548C78.6031 14.41 78.4633 13.7512 78.1835 13.3784 78.0692 13.2064 77.9641 13.0987 77.868 13.0551 77.7719 13.0116 76.9702 12.7387 75.4626 12.2363 74.0732 11.7846 73.3785 10.6047 73.3785 8.69666 73.3785 7.48031 73.8321 6.55811 74.7394 5.93007 75.6466 5.30202 76.8219 4.98801 78.2652 4.98801ZM28.161 4.98801 50.5003 4.98801 64.9586 66.4C65.1763 67.0721 65.4819 67.8811 65.8754 68.827 65.9908 69.0714 66.3546 69.3182 66.9668 69.5674 68.2234 70.0866 69.0903 70.6087 69.5673 71.1336 70.0443 71.6585 70.2828 72.3724 70.2828 73.2753 70.2828 75.7472 68.5894 76.9831 65.2027 76.9831L39.6405 76.9831C38.3621 76.9831 37.3067 76.6473 36.4743 75.9758 35.6419 75.3042 35.2257 74.388 35.2257 73.2271 35.2257 72.2987 35.4207 71.5895 35.8106 71.0997 36.2005 70.6099 36.9283 70.0785 37.9939 69.5054 38.5332 69.2349 38.8859 68.9746 39.0519 68.7246 39.2179 68.4745 39.3009 68.1508 39.3009 67.7535 39.3009 67.2898 39.2854 66.9902 39.2543 66.8547L37.7155 59.8464 23.2279 59.8464 24.8124 51.6438 36.0861 51.6438 26.6606 11.0388ZM352.569 3.60512C357.125 3.79397 360.989 4.58011 364.159 5.96354 367.33 7.34697 370.272 9.36144 372.985 12.0069 380.168 19.0242 383.76 28.7094 383.76 41.0623 383.76 53.1943 380.328 62.6799 373.462 69.5193 368.174 74.8146 361.21 77.7635 352.569 78.366L352.569 70.8622C353.855 70.5623 354.686 70.287 355.064 70.0364 355.441 69.7858 356.122 69.2537 357.107 68.4401 357.252 67.5345 357.324 65.766 357.324 63.1346L357.324 17.3524C357.324 15.7393 357.064 14.4794 356.544 13.5727 356.211 12.9811 355.82 12.5207 355.373 12.1914 354.926 11.8622 353.991 11.442 352.569 10.931ZM350.48 3.60512 350.48 10.9171C348.489 11.6203 347.199 12.4079 346.609 13.28 346.02 14.1522 345.725 15.5096 345.725 17.3524L345.725 63.1346C345.725 65.9472 346.118 67.944 346.904 69.125 347.333 69.8031 348.525 70.3969 350.48 70.9062L350.48 78.366C341.841 77.7304 334.872 74.7814 329.573 69.5193 322.717 62.7012 319.289 53.2155 319.289 41.0623 319.289 34.9713 320.188 29.4733 321.987 24.5685 323.785 19.6636 326.473 15.4764 330.051 12.0069 332.776 9.35382 335.713 7.33731 338.864 5.95741 342.014 4.57752 345.886 3.79342 350.48 3.60512ZM552.106 3.57736C553.351 3.57736 554.323 3.96676 555.023 4.74555 555.723 5.52435 556.073 6.56818 556.073 7.87705L556.073 29.182C556.073 30.8381 555.657 32.0841 554.825 32.9201 554.015 33.7342 553.057 34.1413 551.953 34.1413 550.825 34.1413 549.933 33.7906 549.277 33.0891 548.622 32.3875 548.159 31.5116 547.888 30.4612 547.104 27.5088 546.519 25.4886 546.133 24.4007 544.422 20.8387 542.673 18.0982 540.886 16.1793 539.706 14.9031 538.531 13.9245 537.359 13.2437 536.187 12.5629 534.606 12.0894 532.614 11.8233L532.614 3.65655C535.137 3.94608 536.939 4.25031 538.021 4.56922 539.103 4.88814 541.014 5.54366 543.755 6.5358 545.373 7.10615 546.414 7.39133 546.879 7.39133 547.466 7.39133 547.87 7.20084 548.089 6.81989L548.873 5.36189C549.465 4.1722 550.543 3.57736 552.106 3.57736ZM528.284 3.52512 530.734 3.69083 530.734 11.749C528.416 12.1016 526.835 12.9019 525.991 14.1498 525.147 15.3978 524.725 17.2846 524.725 19.8104L524.725 62.1109 524.725 64.3134C524.725 65.0122 524.862 65.727 525.135 66.4576 525.407 67.1882 525.657 67.6958 525.882 67.9805 526.565 68.8169 527.145 69.3477 527.623 69.5728 528.1 69.7978 529.137 69.987 530.734 70.1405L530.734 78.366C523.138 78.366 516.811 76.5812 511.753 73.0116 507.282 69.8562 503.921 65.6316 501.668 60.3378 499.415 55.0441 498.289 48.8021 498.289 41.6117 498.289 36.3501 499.017 31.4309 500.474 26.8542 501.93 22.2775 504.047 18.3034 506.824 14.9319 509.645 11.5147 513.035 8.75925 516.994 6.6656 520.954 4.57195 524.717 3.52512 528.284 3.52512Z" stroke="#FFFFFF" stroke-linejoin="round" stroke-miterlimit="10" fill-rule="evenodd"/></g></g><path d="M911.345 456.704C912.489 456.704 913.436 457.126 914.187 457.969 914.937 458.813 915.312 459.815 915.312 460.974 915.312 462.678 914.689 464.685 913.442 466.995 912.196 469.305 910.61 471.422 908.684 473.347 906.353 475.676 903.94 477.415 901.445 478.562 898.951 479.71 895.771 480.356 891.906 480.501L891.906 472.254C895.033 472.014 897.835 471.18 900.309 469.751 902.091 468.531 903.56 467.144 904.714 465.591 905.868 464.038 906.733 462.33 907.31 460.467 907.702 459.211 908.211 458.269 908.838 457.643 909.465 457.017 910.3 456.704 911.345 456.704ZM552.914 455.137C554.266 455.137 555.213 455.545 555.757 456.36 556.301 457.176 556.573 458.381 556.573 459.975L556.573 479.118 533.115 479.118 533.115 471.642C535.868 471.218 537.915 470.723 539.255 470.155 540.594 469.587 541.964 468.701 543.363 467.497 544.76 466.295 545.864 465.064 546.678 463.803 547.491 462.543 548.347 460.642 549.246 458.1 549.55 457.216 549.987 456.501 550.556 455.956 551.125 455.41 551.911 455.137 552.914 455.137ZM543.307 427.394C544.857 427.394 545.907 427.971 546.458 429.124 546.827 429.811 547.012 431.02 547.012 432.751L547.012 452.262C547.012 454.044 546.758 455.369 546.25 456.237 545.741 457.106 544.794 457.54 543.409 457.54 542.315 457.54 541.463 457.21 540.851 456.551 540.239 455.892 539.777 454.92 539.466 453.637 538.922 451.432 538.18 449.777 537.239 448.672 536.298 447.567 534.819 446.772 532.801 446.288L532.801 438.864C535.033 437.784 536.575 436.741 537.426 435.735 538.277 434.73 538.917 433.319 539.345 431.504 539.632 430.136 540.083 429.109 540.697 428.423 541.311 427.737 542.181 427.394 543.307 427.394ZM384.665 420.132 388.296 431.775 379.104 465.495C378.93 466.104 378.843 466.78 378.843 467.523 378.843 469.242 379.629 470.463 381.202 471.185L382.987 472.005C384.543 472.715 385.322 473.884 385.322 475.512 385.322 477.916 383.71 479.118 380.488 479.118L367.476 479.118C365.98 479.118 364.749 478.769 363.783 478.073 362.817 477.376 362.333 476.386 362.333 475.103 362.333 473.66 363.292 472.524 365.208 471.697 366.513 471.125 367.47 470.612 368.078 470.16 368.687 469.707 369.227 469.154 369.698 468.5 370.648 467.11 371.414 465.315 371.996 463.114ZM822.4 407.123 823.731 407.123 846.561 407.123 847.893 407.123C849.344 407.123 850.531 407.441 851.451 408.078 852.371 408.715 852.831 409.633 852.831 410.831 852.831 412.728 852.129 413.905 850.724 414.361 849.211 414.865 848.41 415.138 848.319 415.179 848.228 415.22 848.126 415.325 848.013 415.494 847.742 415.856 847.607 416.521 847.607 417.489L847.607 468.752C847.607 469.731 847.742 470.402 848.013 470.763 848.125 470.931 848.227 471.036 848.317 471.078 848.407 471.119 849.2 471.389 850.694 471.887 852.119 472.35 852.831 473.524 852.831 475.41 852.831 476.619 852.375 477.539 851.463 478.17 850.55 478.802 849.36 479.118 847.893 479.118L846.561 479.118 823.731 479.118 822.4 479.118C820.941 479.118 819.761 478.806 818.862 478.184 817.963 477.561 817.513 476.637 817.513 475.41 817.513 473.513 818.198 472.341 819.569 471.896 821.094 471.388 821.905 471.112 822.002 471.067 822.099 471.023 822.205 470.915 822.319 470.744 822.598 470.371 822.738 469.707 822.738 468.752L822.738 417.489C822.738 416.545 822.598 415.886 822.318 415.513 822.204 415.341 822.099 415.233 822.003 415.19 821.906 415.146 821.105 414.873 819.597 414.371 818.208 413.919 817.513 412.739 817.513 410.831 817.513 409.615 817.967 408.693 818.874 408.065 819.781 407.437 820.956 407.123 822.4 407.123ZM781.073 407.123C783.547 407.123 785.727 407.224 787.613 407.428 791.656 407.874 795.784 409.76 799.996 413.087 804.188 416.32 807.29 420.512 809.302 425.665 811.374 430.862 812.41 436.586 812.41 442.839 812.41 449.939 811.09 456.278 808.451 461.855 805.812 467.432 802.009 471.834 797.042 475.062 794.638 476.618 792.387 477.683 790.288 478.257 788.189 478.831 785.117 479.118 781.073 479.118L781.073 471.747C782.918 471.264 784.068 470.898 784.522 470.651 784.975 470.404 785.316 470.099 785.544 469.738 786.087 468.943 786.442 468.125 786.61 467.286 786.778 466.447 786.862 465.16 786.862 463.427L786.862 423.023C786.862 420.711 786.53 418.877 785.867 417.521 785.505 416.74 785.068 416.175 784.556 415.824 784.043 415.474 782.883 415.1 781.073 414.702ZM753.4 407.123 754.731 407.123 778.607 407.123 778.607 479.118 754.731 479.118 753.4 479.118C751.941 479.118 750.761 478.806 749.862 478.184 748.963 477.561 748.513 476.637 748.513 475.41 748.513 473.513 749.198 472.341 750.569 471.896 752.094 471.388 752.905 471.112 753.002 471.067 753.099 471.023 753.205 470.915 753.319 470.744 753.598 470.371 753.738 469.707 753.738 468.752L753.738 417.489C753.738 416.545 753.598 415.886 753.318 415.513 753.204 415.341 753.099 415.233 753.003 415.19 752.906 415.146 752.105 414.873 750.597 414.371 749.208 413.919 748.513 412.739 748.513 410.831 748.513 409.615 748.967 408.693 749.874 408.065 750.781 407.437 751.956 407.123 753.4 407.123ZM643.4 407.123 644.731 407.123 667.561 407.123 668.893 407.123C670.345 407.123 671.531 407.441 672.451 408.078 673.371 408.715 673.831 409.633 673.831 410.831 673.831 412.728 673.129 413.905 671.724 414.361 670.211 414.865 669.41 415.138 669.319 415.179 669.228 415.22 669.126 415.325 669.013 415.494 668.742 415.856 668.607 416.521 668.607 417.489L668.607 468.752C668.607 469.731 668.742 470.402 669.013 470.763 669.125 470.931 669.227 471.036 669.317 471.078 669.407 471.119 670.2 471.389 671.694 471.887 673.119 472.35 673.831 473.524 673.831 475.41 673.831 476.619 673.375 477.539 672.463 478.17 671.55 478.802 670.36 479.118 668.893 479.118L667.561 479.118 644.731 479.118 643.4 479.118C641.941 479.118 640.761 478.806 639.862 478.184 638.963 477.561 638.513 476.637 638.513 475.41 638.513 473.513 639.198 472.341 640.569 471.896 642.094 471.388 642.905 471.112 643.002 471.067 643.099 471.023 643.205 470.915 643.319 470.744 643.598 470.371 643.738 469.707 643.738 468.752L643.738 417.489C643.738 416.545 643.598 415.886 643.318 415.513 643.204 415.341 643.099 415.233 643.003 415.19 642.906 415.146 642.105 414.873 640.597 414.371 639.208 413.919 638.513 412.739 638.513 410.831 638.513 409.615 638.967 408.693 639.874 408.065 640.781 407.437 641.956 407.123 643.4 407.123ZM595.551 407.123 597.926 407.123C601.676 407.123 604.935 407.265 607.703 407.549 611.878 407.945 615.587 409.302 618.831 411.621 623.61 415.015 625.999 419.822 625.999 426.041 625.999 431.122 624.391 435.311 621.173 438.607 619.835 439.983 618.273 441.105 616.487 441.972 614.7 442.839 612.331 443.345 609.379 443.489 611.95 443.505 614.127 443.819 615.911 444.43 617.694 445.042 619.311 445.873 620.762 446.923 622.347 448.091 623.563 449.485 624.412 451.106 625.261 452.726 625.686 454.426 625.686 456.206L625.686 466.806C625.686 467.177 625.676 467.362 625.657 467.362 625.684 467.362 625.724 467.341 625.776 467.298 625.829 467.256 625.974 467.082 626.211 466.776 627.317 465.286 628.489 464.541 629.727 464.541 630.614 464.541 631.451 464.959 632.238 465.796 633.025 466.633 633.418 467.482 633.418 468.344 633.418 469.603 632.871 471.057 631.776 472.705 630.682 474.353 629.244 475.885 627.462 477.3 626.137 478.365 624.601 479.16 622.856 479.687 621.112 480.213 619.064 480.476 616.713 480.476 611.912 480.476 608.15 479.088 605.425 476.311 602.701 473.534 601.339 469.701 601.339 464.81L601.339 456.206C601.339 454.381 601.322 453.315 601.288 453.008 601.142 451.844 600.714 450.815 600.004 449.92 599.245 449.007 597.775 448.429 595.592 448.187L595.592 440.866C597.834 440.535 599.292 440.076 599.967 439.49 600.461 439.046 600.813 438.503 601.024 437.858 601.234 437.214 601.339 436.177 601.339 434.748L601.339 421.178C601.339 419.283 600.991 417.896 600.296 417.015 599.6 416.135 598.019 415.348 595.551 414.654ZM568.4 407.123 569.731 407.123 593.607 407.123 593.607 468.342C593.607 469.436 593.796 470.196 594.174 470.623 594.297 470.775 594.417 470.872 594.534 470.914 594.651 470.955 595.408 471.155 596.805 471.513 598.922 471.996 599.981 473.261 599.981 475.307 599.981 476.576 599.535 477.452 598.644 477.936 597.494 478.724 596.049 479.118 594.309 479.118L592.561 479.118 569.731 479.118 568.4 479.118C566.941 479.118 565.761 478.806 564.862 478.184 563.963 477.561 563.513 476.637 563.513 475.41 563.513 473.513 564.198 472.341 565.569 471.896 567.094 471.388 567.905 471.112 568.002 471.067 568.099 471.023 568.205 470.915 568.319 470.744 568.598 470.371 568.738 469.707 568.738 468.752L568.738 417.489C568.738 416.545 568.598 415.886 568.318 415.513 568.204 415.341 568.099 415.233 568.003 415.19 567.906 415.146 567.105 414.873 565.597 414.371 564.208 413.919 563.513 412.739 563.513 410.831 563.513 409.615 563.967 408.693 564.874 408.065 565.781 407.437 566.956 407.123 568.4 407.123ZM533.062 407.123 555.842 407.123 555.842 426.299C555.842 427.603 555.54 428.607 554.936 429.313 554.333 430.019 553.416 430.372 552.184 430.372 551.158 430.372 550.391 430.144 549.885 429.687 549.378 429.231 548.942 428.434 548.576 427.297 547.345 423.534 545.551 420.675 543.196 418.72 540.842 416.765 537.464 415.561 533.062 415.11ZM505.4 407.123 506.731 407.123 530.607 407.123 530.607 479.118 506.731 479.118 505.4 479.118C503.941 479.118 502.761 478.806 501.862 478.184 500.963 477.561 500.513 476.637 500.513 475.41 500.513 473.513 501.198 472.341 502.569 471.896 504.094 471.388 504.905 471.112 505.002 471.067 505.099 471.023 505.205 470.915 505.319 470.744 505.598 470.371 505.738 469.707 505.738 468.752L505.738 417.489C505.738 416.545 505.598 415.886 505.318 415.513 505.204 415.341 505.099 415.233 505.003 415.19 504.906 415.146 504.105 414.873 502.597 414.371 501.208 413.919 500.513 412.739 500.513 410.831 500.513 409.615 500.967 408.693 501.874 408.065 502.781 407.437 503.956 407.123 505.4 407.123ZM464.812 407.123C472.663 407.123 478.33 407.816 481.811 409.202 485.891 410.828 488.495 413.156 489.622 416.187 493.277 419.93 495.104 424.256 495.104 429.165 495.104 434.628 493.875 439.132 491.416 442.675 488.98 446.151 485.092 448.739 479.753 450.44 477.163 451.703 472.197 452.334 464.853 452.334L464.853 444.982C466.732 444.547 467.914 444.177 468.4 443.872 468.885 443.568 469.259 443.204 469.523 442.78 470.241 441.404 470.6 439.683 470.6 437.616L470.6 421.23C470.6 419.76 470.5 418.695 470.299 418.034 470.098 417.373 469.632 416.712 468.902 416.051 468.214 415.388 466.851 414.91 464.812 414.619ZM437.4 407.123 438.731 407.123 462.607 407.123 462.607 468.342C462.607 469.436 462.796 470.196 463.174 470.623 463.297 470.775 463.417 470.872 463.534 470.914 463.651 470.955 464.408 471.155 465.805 471.513 467.922 471.996 468.981 473.261 468.981 475.307 468.981 476.576 468.535 477.452 467.644 477.936 466.494 478.724 465.049 479.118 463.309 479.118L461.561 479.118 438.731 479.118 437.4 479.118C435.941 479.118 434.761 478.806 433.862 478.184 432.963 477.561 432.513 476.637 432.513 475.41 432.513 473.513 433.198 472.341 434.569 471.896 436.094 471.388 436.905 471.112 437.002 471.067 437.099 471.023 437.205 470.915 437.319 470.744 437.598 470.371 437.738 469.707 437.738 468.752L437.738 417.489C437.738 416.545 437.598 415.886 437.318 415.513 437.204 415.341 437.099 415.233 437.003 415.19 436.906 415.146 436.105 414.873 434.597 414.371 433.208 413.919 432.513 412.739 432.513 410.831 432.513 409.615 432.967 408.693 433.874 408.065 434.781 407.437 435.956 407.123 437.4 407.123ZM387.296 407.123 409.635 407.123 424.093 468.535C424.311 469.207 424.616 470.016 425.01 470.962 425.125 471.206 425.489 471.453 426.101 471.702 427.358 472.221 428.225 472.743 428.702 473.268 429.179 473.793 429.417 474.507 429.417 475.41 429.417 477.882 427.724 479.118 424.337 479.118L398.775 479.118C397.497 479.118 396.441 478.782 395.609 478.11 394.776 477.439 394.36 476.523 394.36 475.362 394.36 474.433 394.555 473.724 394.945 473.234 395.335 472.745 396.063 472.213 397.128 471.64 397.668 471.37 398.02 471.109 398.186 470.859 398.352 470.609 398.435 470.285 398.435 469.888 398.435 469.424 398.42 469.125 398.389 468.989L396.85 461.981 382.362 461.981 383.947 453.778 395.221 453.778 385.795 413.173ZM711.704 405.74C716.26 405.929 720.123 406.715 723.294 408.098 726.465 409.482 729.407 411.496 732.119 414.142 739.303 421.159 742.895 430.844 742.895 443.197 742.895 455.329 739.462 464.815 732.597 471.654 727.308 476.949 720.344 479.898 711.704 480.501L711.704 472.997C712.99 472.697 713.821 472.422 714.198 472.171 714.576 471.92 715.257 471.388 716.242 470.575 716.386 469.669 716.458 467.901 716.458 465.269L716.458 419.487C716.458 417.874 716.198 416.614 715.679 415.707 715.345 415.116 714.955 414.655 714.508 414.326 714.061 413.997 713.126 413.577 711.704 413.066ZM709.614 405.74 709.614 413.052C707.623 413.755 706.333 414.542 705.744 415.415 705.154 416.287 704.86 417.644 704.86 419.487L704.86 465.269C704.86 468.082 705.253 470.079 706.039 471.26 706.467 471.938 707.659 472.531 709.614 473.041L709.614 480.501C700.976 479.865 694.007 476.916 688.708 471.654 681.851 464.836 678.423 455.35 678.423 443.197 678.423 437.106 679.323 431.608 681.121 426.703 682.92 421.798 685.608 417.611 689.185 414.142 691.91 411.488 694.848 409.472 697.998 408.092 701.149 406.712 705.021 405.928 709.614 405.74ZM911.241 405.712C912.485 405.712 913.458 406.101 914.158 406.88 914.857 407.659 915.207 408.703 915.207 410.012L915.207 431.317C915.207 432.973 914.791 434.219 913.959 435.055 913.149 435.869 912.192 436.276 911.087 436.276 909.959 436.276 909.067 435.925 908.412 435.224 907.756 434.522 907.293 433.646 907.023 432.596 906.238 429.643 905.653 427.623 905.268 426.535 903.557 422.973 901.808 420.233 900.02 418.314 898.841 417.038 897.665 416.059 896.494 415.378 895.322 414.697 893.74 414.224 891.749 413.958L891.749 405.791C894.271 406.081 896.074 406.385 897.156 406.704 898.237 407.023 900.149 407.678 902.89 408.67 904.508 409.241 905.549 409.526 906.014 409.526 906.601 409.526 907.004 409.335 907.224 408.954L908.007 407.496C908.599 406.307 909.677 405.712 911.241 405.712ZM887.419 405.66 889.868 405.825 889.868 413.884C887.551 414.236 885.97 415.036 885.126 416.284 884.282 417.532 883.86 419.419 883.86 421.945L883.86 464.246 883.86 466.448C883.86 467.147 883.996 467.862 884.269 468.592 884.542 469.323 884.791 469.83 885.017 470.115 885.7 470.952 886.28 471.482 886.757 471.707 887.235 471.932 888.272 472.122 889.868 472.275L889.868 480.501C882.272 480.501 875.945 478.716 870.887 475.146 866.417 471.991 863.055 467.766 860.802 462.472 858.55 457.179 857.423 450.937 857.423 443.746 857.423 438.485 858.152 433.565 859.608 428.989 861.065 424.412 863.181 420.438 865.958 417.066 868.779 413.649 872.17 410.894 876.129 408.8 880.088 406.707 883.852 405.66 887.419 405.66Z" stroke="#FFFFFF" stroke-linejoin="round" stroke-miterlimit="10" fill-rule="evenodd"/><text fill="#000000" fill-opacity="0" font-family="Arial,Arial_MSFontService,sans-serif" font-size="74.8409" x="362.333" y="471.145">APERIODIC</text></g></svg>