<svg width="476" height="269" xmlns="http://www.w3.org/2000/svg" xmlns:xlink="http://www.w3.org/1999/xlink" overflow="hidden"><defs><filter id="fx0" x="-10%" y="-10%" width="120%" height="120%" filterUnits="userSpaceOnUse" primitiveUnits="userSpaceOnUse"><feComponentTransfer color-interpolation-filters="sRGB"><feFuncR type="discrete" tableValues="0.498039 0.498039"/><feFuncG type="discrete" tableValues="0.498039 0.498039"/><feFuncB type="discrete" tableValues="0.498039 0.498039"/><feFuncA type="linear" slope="1" intercept="0"/></feComponentTransfer><feGaussianBlur stdDeviation="0.448967 0.448967"/></filter><filter id="fx1" x="-10%" y="-10%" width="120%" height="120%" filterUnits="userSpaceOnUse" primitiveUnits="userSpaceOnUse"><feComponentTransfer color-interpolation-filters="sRGB"><feFuncR type="discrete" tableValues="0.498039 0.498039"/><feFuncG type="discrete" tableValues="0.498039 0.498039"/><feFuncB type="discrete" tableValues="0.498039 0.498039"/><feFuncA type="linear" slope="1" intercept="0"/></feComponentTransfer><feGaussianBlur stdDeviation="0.448967 0.448967"/></filter><clipPath id="clip2"><rect x="1" y="2" width="314" height="78"/></clipPath><clipPath id="clip3"><rect x="2" y="2" width="454" height="78"/></clipPath></defs><g transform="translate(-402 -248)"><g clip-path="url(#clip2)" filter="url(#fx0)" transform="translate(486 277)"><g><path d="M240.033 53.0022C241.384 53.0022 242.332 53.4101 242.876 54.2259 243.42 55.0417 243.692 56.2466 243.692 57.8406L243.692 76.9831 220.233 76.9831 220.233 69.5079C222.987 69.0839 225.034 68.5881 226.373 68.0205 227.713 67.4528 229.082 66.5668 230.482 65.3624 231.878 64.1608 232.983 62.9296 233.796 61.6689 234.61 60.4082 235.466 58.5071 236.364 55.9655 236.669 55.0817 237.105 54.3668 237.675 53.821 238.244 53.2751 239.03 53.0022 240.033 53.0022ZM67.1837 49.1C68.2776 49.0549 69.1248 49.3553 69.7254 50.0013 70.3259 50.6473 70.8001 51.6269 71.1478 52.9401 71.9054 55.7718 73.008 58.4347 74.4557 60.9289 75.9033 63.4231 77.6873 65.769 79.8076 67.9666 81.4523 69.1677 83.7753 70.0605 86.7768 70.645L86.7768 78.366C83.0771 78.366 79.6661 77.5644 76.5439 75.9611 74.9155 75.3374 73.8932 74.9512 73.4769 74.8027 73.0605 74.6541 72.7043 74.5798 72.4083 74.5798 71.9462 74.5798 71.614 74.6458 71.4115 74.7778 71.2091 74.9097 70.7946 75.3469 70.1682 76.0892 69.2844 77.1728 68.3059 77.7146 67.2327 77.7146 64.6231 77.7146 63.3183 75.8933 63.3183 72.2508L63.3183 53.6103C63.3183 52.4049 63.6784 51.3636 64.3987 50.4866 65.119 49.6096 66.0473 49.1474 67.1837 49.1ZM7.18367 49.1C8.27757 49.0549 9.1248 49.3553 9.72536 50.0013 10.3259 50.6473 10.8001 51.6269 11.1478 52.9401 11.9054 55.7718 13.008 58.4347 14.4557 60.9289 15.9033 63.4231 17.6873 65.769 19.8076 67.9666 21.4523 69.1677 23.7753 70.0605 26.7768 70.645L26.7768 78.366C23.0771 78.366 19.6661 77.5644 16.5439 75.9611 14.9155 75.3374 13.8932 74.9512 13.4769 74.8027 13.0605 74.6541 12.7043 74.5798 12.4083 74.5798 11.9462 74.5798 11.614 74.6458 11.4115 74.7778 11.2091 74.9097 10.7946 75.3469 10.1682 76.0892 9.2844 77.1728 8.30587 77.7146 7.23265 77.7146 4.62307 77.7146 3.31827 75.8933 3.31827 72.2508L3.31827 53.6103C3.31827 52.4049 3.67841 51.3636 4.39871 50.4866 5.119 49.6096 6.04732 49.1474 7.18367 49.1ZM230.425 25.2595C231.975 25.2595 233.026 25.8361 233.576 26.9893 233.946 27.6767 234.131 28.8857 234.131 30.6163L234.131 50.1278C234.131 51.9091 233.877 53.234 233.368 54.1026 232.86 54.9712 231.913 55.4055 230.527 55.4055 229.434 55.4055 228.581 55.0758 227.969 54.4165 227.357 53.7571 226.896 52.7858 226.584 51.5025 226.041 49.2973 225.298 47.6422 224.357 46.5371 223.417 45.4321 221.937 44.6373 219.92 44.153L219.92 36.7291C222.152 35.6494 223.693 34.6066 224.544 33.6009 225.396 32.5952 226.035 31.1848 226.464 29.3698 226.751 28.0016 227.202 26.9745 227.816 26.2885 228.429 25.6025 229.299 25.2595 230.425 25.2595ZM282.93 4.98801C290.782 4.98801 296.448 5.68108 299.929 7.06724 304.01 8.6934 306.614 11.0219 307.741 14.0527 311.395 17.7954 313.223 22.1212 313.223 27.0301 313.223 32.4937 311.993 36.9972 309.535 40.5407 307.099 44.0167 303.211 46.6047 297.871 48.3049 295.282 49.5681 290.315 50.1997 282.972 50.1997L282.972 42.8476C284.851 42.4123 286.033 42.0423 286.518 41.7378 287.004 41.4333 287.378 41.0691 287.642 40.6451 288.36 39.2699 288.719 37.5485 288.719 35.4809L288.719 19.0953C288.719 17.6258 288.619 16.5605 288.418 15.8993 288.216 15.238 287.751 14.5771 287.02 13.9164 286.333 13.253 284.97 12.7757 282.93 12.4845ZM255.518 4.98801 256.85 4.98801 280.725 4.98801 280.725 66.2074C280.725 67.3013 280.915 68.0616 281.293 68.4882 281.415 68.6406 281.535 68.7376 281.652 68.7793 281.77 68.8209 282.527 69.0205 283.924 69.3781 286.041 69.8613 287.1 71.1261 287.1 73.1724 287.1 74.4416 286.654 75.3178 285.763 75.8011 284.613 76.5891 283.167 76.9831 281.428 76.9831L279.68 76.9831 256.85 76.9831 255.518 76.9831C254.059 76.9831 252.88 76.6718 251.981 76.0492 251.081 75.4266 250.632 74.502 250.632 73.2753 250.632 71.3781 251.317 70.2069 252.687 69.7617 254.212 69.2534 255.023 68.9771 255.12 68.9327 255.218 68.8884 255.323 68.7805 255.438 68.6091 255.717 68.2368 255.856 67.5728 255.856 66.6172L255.856 15.3548C255.856 14.41 255.716 13.7512 255.437 13.3784 255.322 13.2064 255.217 13.0987 255.121 13.0551 255.025 13.0116 254.223 12.7387 252.716 12.2363 251.326 11.7846 250.632 10.6047 250.632 8.69666 250.632 7.48031 251.085 6.55811 251.993 5.93007 252.9 5.30202 254.075 4.98801 255.518 4.98801ZM220.181 4.98801 242.96 4.98801 242.96 24.164C242.96 25.4679 242.659 26.4729 242.055 27.1787 241.451 27.8846 240.534 28.2375 239.303 28.2375 238.277 28.2375 237.51 28.0092 237.003 27.5526 236.497 27.096 236.061 26.2992 235.695 25.1623 234.463 21.3995 232.67 18.5406 230.315 16.5854 227.96 14.6303 224.582 13.4268 220.181 12.9751ZM192.518 4.98801 193.85 4.98801 217.725 4.98801 217.725 76.9831 193.85 76.9831 192.518 76.9831C191.059 76.9831 189.88 76.6718 188.981 76.0492 188.081 75.4266 187.632 74.502 187.632 73.2753 187.632 71.3781 188.317 70.2069 189.687 69.7617 191.212 69.2534 192.023 68.9771 192.12 68.9327 192.218 68.8884 192.323 68.7805 192.438 68.6091 192.717 68.2368 192.856 67.5728 192.856 66.6172L192.856 15.3548C192.856 14.41 192.716 13.7512 192.437 13.3784 192.322 13.2064 192.217 13.0987 192.121 13.0551 192.025 13.0116 191.223 12.7387 189.716 12.2363 188.326 11.7846 187.632 10.6047 187.632 8.69666 187.632 7.48031 188.085 6.55811 188.993 5.93007 189.9 5.30202 191.075 4.98801 192.518 4.98801ZM166.242 4.98801 178.792 4.98801C180.564 4.98801 181.684 5.14175 182.154 5.44924 183.508 6.29225 184.185 7.37446 184.185 8.69585 184.185 9.54594 183.997 10.2472 183.62 10.7996 183.243 11.352 182.476 11.8527 181.317 12.3016L179.147 13.4331C178.255 13.8511 177.346 14.7597 176.419 16.1589 175.492 17.5581 174.688 19.4305 174.009 21.7761L164.988 51.736 161.201 41.0852 167.096 19.2406C167.454 17.9344 167.65 17.129 167.683 16.8242 167.746 16.3088 167.685 15.8606 167.501 15.4797 166.911 14.1871 166.088 13.3697 165.034 13.0274L163.44 12.4461C161.77 11.8872 160.935 10.7054 160.935 8.90075 160.935 7.60222 161.434 6.62546 162.43 5.97047 163.427 5.3155 164.697 4.98801 166.242 4.98801ZM126.798 4.98801 149.593 4.98801C151.037 4.98801 152.08 5.02937 152.723 5.11209 153.366 5.19482 153.976 5.4087 154.552 5.75374 154.998 6.06504 155.382 6.51702 155.701 7.10969 156.021 7.70235 156.181 8.28223 156.181 8.84932 156.181 10.5582 155.367 11.7816 153.739 12.5196 153.043 12.8657 152.588 13.1896 152.374 13.4911 152.16 13.7926 152.054 14.2598 152.054 14.8927 152.054 15.3667 152.105 15.8389 152.208 16.3091L164.112 58.0072 158.985 76.9831 143.882 76.9831 125.407 15.0495C125.163 14.2266 124.971 13.7206 124.832 13.5315 124.692 13.3424 124.417 13.152 124.006 12.9604 122.838 12.4864 122.013 11.985 121.532 11.4563 121.051 10.9276 120.81 10.144 120.81 9.10565 120.81 7.69827 121.437 6.6022 122.691 5.81741 123.588 5.26447 124.957 4.98801 126.798 4.98801ZM91.3222 3.86145C94.1859 4.01383 96.4111 4.29724 97.9978 4.71167 99.5845 5.12611 101.871 5.95918 104.857 7.21091 105.158 7.33119 105.467 7.39133 105.784 7.39133 106.066 7.39133 106.286 7.27676 106.444 7.04765L107.775 5.28597C108.347 4.49521 109.203 4.09982 110.341 4.09982 111.661 4.09982 112.617 4.565 113.211 5.49536 113.805 6.42573 114.101 7.69746 114.101 9.31055L114.101 26.2122C114.101 27.453 113.72 28.5013 112.958 29.3571 112.196 30.2129 111.204 30.6408 109.983 30.6408 109.061 30.6408 108.193 30.3298 107.38 29.7078 106.974 29.3464 106.653 28.919 106.416 28.4257 106.18 27.9323 105.985 27.2672 105.83 26.4301 105.436 24.6712 104.804 22.9541 103.934 21.279 103.064 19.6039 101.95 17.5823 100.591 15.2144 98.4559 13.6214 95.3664 12.3425 91.3222 11.3775ZM31.3222 3.86145C34.1859 4.01383 36.4111 4.29724 37.9978 4.71167 39.5845 5.12611 41.871 5.95918 44.8572 7.21091 45.1581 7.33119 45.467 7.39133 45.7837 7.39133 46.0656 7.39133 46.2858 7.27676 46.4442 7.04765L47.7748 5.28597C48.3473 4.49521 49.2029 4.09982 50.3414 4.09982 51.6606 4.09982 52.6171 4.565 53.2108 5.49536 53.8046 6.42573 54.1015 7.69746 54.1015 9.31055L54.1015 26.2122C54.1015 27.453 53.7204 28.5013 52.9582 29.3571 52.196 30.2129 51.2043 30.6408 49.983 30.6408 49.0605 30.6408 48.1928 30.3298 47.3797 29.7078 46.9737 29.3464 46.6526 28.919 46.4164 28.4257 46.1802 27.9323 45.9848 27.2672 45.8303 26.4301 45.4357 24.6712 44.8036 22.9541 43.9339 21.279 43.0642 19.6039 41.9499 17.5823 40.591 15.2144 38.4559 13.6214 35.3664 12.3425 31.3222 11.3775ZM89.3891 3.60512 89.3891 11.3277C86.9477 11.9939 85.2488 12.8472 84.2926 13.8878 83.3364 14.9284 82.8583 16.2024 82.8583 17.7099 82.8583 19.2202 83.262 20.5352 84.0694 21.6549 84.8767 22.7747 86.0238 23.8254 87.5107 24.8072 89.4171 25.6954 92.858 27.2304 97.8333 29.4122 101.019 30.7908 103.473 32.0267 105.193 33.1201 106.914 34.2134 108.247 35.4883 109.194 36.9447 114.068 41.6114 116.505 46.9958 116.505 53.0977 116.505 57.6703 115.359 61.8724 113.067 65.7041 110.775 69.5357 107.63 72.5403 103.631 74.7178 101.535 75.8356 99.2176 76.7231 96.6782 77.3803 94.1388 78.0374 91.4131 78.366 88.5009 78.366L88.5009 70.6638C91.8278 69.8627 94.0614 68.9074 95.2019 67.798 96.3423 66.6886 96.9125 65.1856 96.9125 63.2889 96.9125 61.3319 96.0456 59.6176 94.3116 58.146 92.9456 57.0199 90.3948 55.6411 86.6592 54.0095 82.3718 52.1303 79.455 50.8005 77.9088 50.0201 76.3627 49.2396 75.0516 48.3604 73.9757 47.3824 66.8359 42.4866 63.266 36.044 63.266 28.0547 63.266 23.9914 64.1037 20.2406 65.7792 16.8022 67.4546 13.3637 69.8041 10.5835 72.8279 8.46156 76.9809 5.55264 82.5013 3.93383 89.3891 3.60512ZM29.3891 3.60512 29.3891 11.3277C26.9477 11.9939 25.2488 12.8472 24.2926 13.8878 23.3364 14.9284 22.8583 16.2024 22.8583 17.7099 22.8583 19.2202 23.262 20.5352 24.0694 21.6549 24.8767 22.7747 26.0238 23.8254 27.5107 24.8072 29.4171 25.6954 32.858 27.2304 37.8333 29.4122 41.0193 30.7908 43.4725 32.0267 45.1931 33.1201 46.9137 34.2134 48.2472 35.4883 49.1936 36.9447 54.0677 41.6114 56.5048 46.9958 56.5048 53.0977 56.5048 57.6703 55.3589 61.8724 53.0672 65.7041 50.7754 69.5357 47.63 72.5403 43.631 74.7178 41.5352 75.8356 39.2176 76.7231 36.6782 77.3803 34.1388 78.0374 31.4131 78.366 28.5009 78.366L28.5009 70.6638C31.8278 69.8627 34.0614 68.9074 35.2019 67.798 36.3423 66.6886 36.9125 65.1856 36.9125 63.2889 36.9125 61.3319 36.0456 59.6176 34.3116 58.146 32.9456 57.0199 30.3948 55.6411 26.6592 54.0095 22.3718 52.1303 19.455 50.8005 17.9088 50.0201 16.3627 49.2396 15.0516 48.3604 13.9757 47.3824 6.8359 42.4866 3.26603 36.044 3.26603 28.0547 3.26603 23.9914 4.10373 20.2406 5.77914 16.8022 7.45456 13.3637 9.80413 10.5835 12.8279 8.46156 16.9809 5.55264 22.5013 3.93383 29.3891 3.60512Z" stroke="#FFFFFF" stroke-linejoin="round" stroke-miterlimit="10" fill="#FFFFFF" fill-rule="evenodd"/></g></g><path d="M723.167 327.137C724.519 327.137 725.466 327.545 726.01 328.36 726.554 329.176 726.826 330.381 726.826 331.975L726.826 351.118 703.368 351.118 703.368 343.642C706.122 343.218 708.168 342.723 709.508 342.155 710.848 341.587 712.217 340.701 713.616 339.497 715.013 338.295 716.118 337.064 716.931 335.803 717.744 334.543 718.6 332.642 719.499 330.1 719.803 329.216 720.24 328.501 720.809 327.956 721.378 327.41 722.164 327.137 723.167 327.137ZM550.318 323.235C551.412 323.189 552.259 323.49 552.86 324.136 553.46 324.782 553.935 325.761 554.282 327.075 555.04 329.906 556.143 332.569 557.59 335.063 559.038 337.558 560.822 339.904 562.942 342.101 564.587 343.302 566.91 344.195 569.911 344.78L569.911 352.501C566.212 352.501 562.801 351.699 559.678 350.096 558.05 349.472 557.028 349.086 556.611 348.937 556.195 348.789 555.839 348.714 555.543 348.714 555.081 348.714 554.749 348.78 554.546 348.912 554.344 349.044 553.929 349.481 553.303 350.224 552.419 351.307 551.44 351.849 550.367 351.849 547.758 351.849 546.453 350.028 546.453 346.385L546.453 327.745C546.453 326.539 546.813 325.498 547.533 324.621 548.254 323.744 549.182 323.282 550.318 323.235ZM490.318 323.235C491.412 323.189 492.259 323.49 492.86 324.136 493.46 324.782 493.935 325.761 494.282 327.075 495.04 329.906 496.143 332.569 497.59 335.063 499.038 337.558 500.822 339.904 502.942 342.101 504.587 343.302 506.91 344.195 509.911 344.78L509.911 352.501C506.212 352.501 502.801 351.699 499.678 350.096 498.05 349.472 497.028 349.086 496.611 348.937 496.195 348.789 495.839 348.714 495.543 348.714 495.081 348.714 494.749 348.78 494.546 348.912 494.344 349.044 493.929 349.481 493.303 350.224 492.419 351.307 491.44 351.849 490.367 351.849 487.758 351.849 486.453 350.028 486.453 346.385L486.453 327.745C486.453 326.539 486.813 325.498 487.533 324.621 488.254 323.744 489.182 323.282 490.318 323.235ZM713.56 299.394C715.11 299.394 716.16 299.971 716.711 301.124 717.081 301.811 717.265 303.02 717.265 304.751L717.265 324.262C717.265 326.044 717.011 327.369 716.503 328.237 715.995 329.106 715.048 329.54 713.662 329.54 712.569 329.54 711.716 329.21 711.104 328.551 710.492 327.892 710.03 326.92 709.719 325.637 709.175 323.432 708.433 321.777 707.492 320.672 706.551 319.567 705.072 318.772 703.054 318.288L703.054 310.864C705.286 309.784 706.828 308.741 707.679 307.735 708.53 306.73 709.17 305.319 709.598 303.504 709.886 302.136 710.336 301.109 710.95 300.423 711.564 299.737 712.434 299.394 713.56 299.394ZM766.065 279.123C773.917 279.123 779.583 279.816 783.064 281.202 787.144 282.828 789.748 285.156 790.875 288.187 794.53 291.93 796.357 296.256 796.357 301.165 796.357 306.628 795.128 311.132 792.67 314.675 790.234 318.151 786.346 320.739 781.006 322.44 778.416 323.703 773.45 324.334 766.107 324.334L766.107 316.982C767.985 316.547 769.167 316.177 769.653 315.872 770.138 315.568 770.513 315.204 770.776 314.78 771.495 313.404 771.854 311.683 771.854 309.616L771.854 293.23C771.854 291.76 771.753 290.695 771.552 290.034 771.351 289.373 770.885 288.712 770.155 288.051 769.468 287.388 768.104 286.91 766.065 286.619ZM738.653 279.123 739.984 279.123 763.86 279.123 763.86 340.342C763.86 341.436 764.049 342.196 764.427 342.623 764.55 342.775 764.67 342.872 764.787 342.914 764.904 342.955 765.661 343.155 767.058 343.513 769.176 343.996 770.234 345.261 770.234 347.307 770.234 348.576 769.789 349.452 768.898 349.936 767.747 350.724 766.302 351.118 764.562 351.118L762.814 351.118 739.984 351.118 738.653 351.118C737.194 351.118 736.015 350.806 735.115 350.184 734.216 349.561 733.766 348.637 733.766 347.41 733.766 345.513 734.451 344.341 735.822 343.896 737.347 343.388 738.158 343.112 738.255 343.067 738.352 343.023 738.458 342.915 738.572 342.744 738.851 342.371 738.991 341.707 738.991 340.752L738.991 289.489C738.991 288.545 738.851 287.886 738.571 287.513 738.457 287.341 738.352 287.233 738.256 287.19 738.16 287.146 737.358 286.873 735.85 286.371 734.461 285.919 733.766 284.739 733.766 282.831 733.766 281.615 734.22 280.693 735.127 280.065 736.034 279.437 737.21 279.123 738.653 279.123ZM703.316 279.123 726.095 279.123 726.095 298.299C726.095 299.603 725.793 300.607 725.19 301.313 724.586 302.019 723.669 302.372 722.438 302.372 721.411 302.372 720.645 302.144 720.138 301.687 719.631 301.231 719.195 300.434 718.829 299.297 717.598 295.534 715.805 292.675 713.45 290.72 711.095 288.765 707.717 287.561 703.316 287.11ZM675.653 279.123 676.984 279.123 700.86 279.123 700.86 351.118 676.984 351.118 675.653 351.118C674.194 351.118 673.015 350.806 672.115 350.184 671.216 349.561 670.766 348.637 670.766 347.41 670.766 345.513 671.451 344.341 672.822 343.896 674.347 343.388 675.158 343.112 675.255 343.067 675.352 343.023 675.458 342.915 675.572 342.744 675.851 342.371 675.991 341.707 675.991 340.752L675.991 289.489C675.991 288.545 675.851 287.886 675.571 287.513 675.457 287.341 675.352 287.233 675.256 287.19 675.16 287.146 674.358 286.873 672.85 286.371 671.461 285.919 670.766 284.739 670.766 282.831 670.766 281.615 671.22 280.693 672.127 280.065 673.034 279.437 674.21 279.123 675.653 279.123ZM649.376 279.123 661.927 279.123C663.698 279.123 664.819 279.276 665.288 279.584 666.642 280.427 667.32 281.509 667.32 282.83 667.32 283.681 667.131 284.382 666.755 284.934 666.378 285.487 665.61 285.987 664.452 286.436L662.282 287.568C661.39 287.986 660.48 288.894 659.553 290.293 658.626 291.693 657.823 293.565 657.144 295.911L648.122 325.871 644.335 315.22 650.231 293.375C650.589 292.069 650.784 291.264 650.818 290.959 650.88 290.443 650.82 289.995 650.635 289.614 650.045 288.322 649.223 287.504 648.168 287.162L646.575 286.581C644.905 286.022 644.07 284.84 644.07 283.035 644.07 281.737 644.568 280.76 645.565 280.105 646.561 279.45 647.832 279.123 649.376 279.123ZM609.932 279.123 632.728 279.123C634.172 279.123 635.215 279.164 635.858 279.247 636.501 279.329 637.11 279.543 637.686 279.888 638.133 280.2 638.516 280.652 638.836 281.244 639.156 281.837 639.316 282.417 639.316 282.984 639.316 284.693 638.502 285.916 636.874 286.654 636.177 287 635.722 287.324 635.509 287.626 635.295 287.927 635.188 288.394 635.188 289.027 635.188 289.501 635.24 289.973 635.342 290.444L647.246 332.142 642.12 351.118 627.017 351.118 608.542 289.184C608.297 288.361 608.106 287.855 607.966 287.666 607.827 287.477 607.552 287.287 607.14 287.095 605.972 286.621 605.148 286.12 604.667 285.591 604.186 285.062 603.945 284.279 603.945 283.24 603.945 281.833 604.572 280.737 605.825 279.952 606.722 279.399 608.091 279.123 609.932 279.123ZM574.457 277.996C577.32 278.148 579.546 278.432 581.132 278.846 582.719 279.261 585.006 280.094 587.992 281.345 588.293 281.466 588.602 281.526 588.918 281.526 589.2 281.526 589.42 281.411 589.579 281.182L590.909 279.421C591.482 278.63 592.337 278.234 593.476 278.234 594.795 278.234 595.752 278.7 596.345 279.63 596.939 280.56 597.236 281.832 597.236 283.445L597.236 300.347C597.236 301.588 596.855 302.636 596.093 303.492 595.331 304.348 594.339 304.775 593.118 304.775 592.195 304.775 591.327 304.464 590.514 303.842 590.108 303.481 589.787 303.054 589.551 302.56 589.315 302.067 589.119 301.402 588.965 300.565 588.57 298.806 587.938 297.089 587.068 295.414 586.199 293.738 585.084 291.717 583.726 289.349 581.591 287.756 578.501 286.477 574.457 285.512ZM514.457 277.996C517.32 278.148 519.546 278.432 521.132 278.846 522.719 279.261 525.006 280.094 527.992 281.345 528.293 281.466 528.602 281.526 528.918 281.526 529.2 281.526 529.42 281.411 529.579 281.182L530.909 279.421C531.482 278.63 532.337 278.234 533.476 278.234 534.795 278.234 535.752 278.7 536.345 279.63 536.939 280.56 537.236 281.832 537.236 283.445L537.236 300.347C537.236 301.588 536.855 302.636 536.093 303.492 535.331 304.348 534.339 304.775 533.118 304.775 532.195 304.775 531.327 304.464 530.514 303.842 530.108 303.481 529.787 303.054 529.551 302.56 529.315 302.067 529.119 301.402 528.965 300.565 528.57 298.806 527.938 297.089 527.068 295.414 526.199 293.738 525.084 291.717 523.726 289.349 521.591 287.756 518.501 286.477 514.457 285.512ZM572.524 277.74 572.524 285.462C570.082 286.128 568.383 286.982 567.427 288.022 566.471 289.063 565.993 290.337 565.993 291.845 565.993 293.355 566.397 294.67 567.204 295.789 568.011 296.909 569.158 297.96 570.645 298.942 572.552 299.83 575.993 301.365 580.968 303.547 584.154 304.925 586.607 306.161 588.328 307.255 590.048 308.348 591.382 309.623 592.328 311.079 597.202 315.746 599.639 321.13 599.639 327.232 599.639 331.805 598.493 336.007 596.202 339.839 593.91 343.67 590.765 346.675 586.766 348.852 584.67 349.97 582.352 350.858 579.813 351.515 577.273 352.172 574.548 352.501 571.635 352.501L571.635 344.798C574.962 343.997 577.196 343.042 578.336 341.933 579.477 340.823 580.047 339.32 580.047 337.424 580.047 335.466 579.18 333.752 577.446 332.281 576.08 331.155 573.529 329.776 569.794 328.144 565.506 326.265 562.59 324.935 561.043 324.155 559.497 323.374 558.186 322.495 557.11 321.517 549.97 316.621 546.401 310.179 546.401 302.189 546.401 298.126 547.238 294.375 548.914 290.937 550.589 287.498 552.939 284.718 555.962 282.596 560.115 279.687 565.636 278.068 572.524 277.74ZM512.524 277.74 512.524 285.462C510.082 286.128 508.383 286.982 507.427 288.022 506.471 289.063 505.993 290.337 505.993 291.845 505.993 293.355 506.397 294.67 507.204 295.789 508.011 296.909 509.158 297.96 510.645 298.942 512.552 299.83 515.993 301.365 520.968 303.547 524.154 304.925 526.607 306.161 528.328 307.255 530.048 308.348 531.382 309.623 532.328 311.079 537.202 315.746 539.639 321.13 539.639 327.232 539.639 331.805 538.493 336.007 536.202 339.839 533.91 343.67 530.765 346.675 526.766 348.852 524.67 349.97 522.352 350.858 519.813 351.515 517.273 352.172 514.548 352.501 511.635 352.501L511.635 344.798C514.962 343.997 517.196 343.042 518.336 341.933 519.477 340.823 520.047 339.32 520.047 337.424 520.047 335.466 519.18 333.752 517.446 332.281 516.08 331.155 513.529 329.776 509.794 328.144 505.506 326.265 502.59 324.935 501.043 324.155 499.497 323.374 498.186 322.495 497.11 321.517 489.97 316.621 486.401 310.179 486.401 302.189 486.401 298.126 487.238 294.375 488.914 290.937 490.589 287.498 492.939 284.718 495.962 282.596 500.115 279.687 505.636 278.068 512.524 277.74Z" stroke="#FFFFFF" stroke-linejoin="round" stroke-miterlimit="10" fill="#FFFFFF" fill-rule="evenodd"/><text fill="#000000" fill-opacity="0" font-family="Arial,Arial_MSFontService,sans-serif" font-size="74.7609" x="486.401" y="343.155">SSVEP</text><g clip-path="url(#clip3)" filter="url(#fx1)" transform="translate(414 405)"><g><path d="M194.113 53.0022C195.464 53.0022 196.412 53.4101 196.956 54.2259 197.5 55.0417 197.772 56.2466 197.772 57.8406L197.772 76.9831 174.313 76.9831 174.313 69.5079C177.067 69.0839 179.114 68.5881 180.453 68.0205 181.793 67.4528 183.162 66.5668 184.562 65.3624 185.958 64.1608 187.063 62.9296 187.876 61.6689 188.69 60.4082 189.546 58.5071 190.444 55.9655 190.749 55.0817 191.185 54.3668 191.755 53.821 192.324 53.2751 193.11 53.0022 194.113 53.0022ZM184.505 25.2595C186.055 25.2595 187.106 25.8361 187.656 26.9893 188.026 27.6767 188.211 28.8857 188.211 30.6163L188.211 50.1278C188.211 51.9091 187.957 53.234 187.448 54.1026 186.94 54.9712 185.993 55.4055 184.607 55.4055 183.514 55.4055 182.661 55.0758 182.049 54.4165 181.437 53.7571 180.976 52.7858 180.664 51.5025 180.121 49.2973 179.378 47.6422 178.437 46.5371 177.496 45.4321 176.017 44.6373 174 44.153L174 36.7291C176.232 35.6494 177.773 34.6066 178.624 33.6009 179.476 32.5952 180.115 31.1848 180.544 29.3698 180.831 28.0016 181.282 26.9745 181.896 26.2885 182.509 25.6025 183.379 25.2595 184.505 25.2595ZM25.864 17.9973 29.4943 29.64 20.3022 63.3608C20.1286 63.9698 20.0418 64.6457 20.0418 65.3886 20.0418 67.1078 20.828 68.3285 22.4002 69.0507L24.1856 69.8703C25.7421 70.5805 26.5203 71.7495 26.5203 73.3773 26.5203 75.7812 24.9091 76.9831 21.6868 76.9831L8.67502 76.9831C7.17893 76.9831 5.94775 76.6348 4.98147 75.9382 4.01519 75.2416 3.53205 74.2516 3.53205 72.9683 3.53205 71.525 4.49016 70.3898 6.4064 69.5625 7.71146 68.99 8.66836 68.4775 9.27708 68.025 9.8858 67.5724 10.4258 67.0191 10.8971 66.3649 11.8468 64.9755 12.6128 63.1804 13.1951 60.9795ZM422.272 4.98801C424.746 4.98801 426.926 5.08978 428.811 5.29332 432.854 5.73904 436.982 7.62534 441.195 10.9522 445.387 14.185 448.489 18.3777 450.501 23.5305 452.573 28.7273 453.609 34.4518 453.609 40.7039 453.609 47.8045 452.289 54.1433 449.65 59.7203 447.011 65.2973 443.208 69.6997 438.241 72.9275 435.837 74.4835 433.586 75.5484 431.487 76.1223 429.387 76.6962 426.316 76.9831 422.272 76.9831L422.272 69.6123C424.117 69.1291 425.267 68.7637 425.72 68.5164 426.174 68.269 426.515 67.9647 426.743 67.6033 427.285 66.8082 427.641 65.9909 427.809 65.1514 427.976 64.312 428.06 63.0255 428.06 61.2922L428.06 20.888C428.06 18.5766 427.729 16.7428 427.066 15.3866 426.704 14.6056 426.266 14.0401 425.754 13.6898 425.242 13.3396 424.081 12.9656 422.272 12.5678ZM394.598 4.98801 395.93 4.98801 419.805 4.98801 419.805 76.9831 395.93 76.9831 394.598 76.9831C393.139 76.9831 391.96 76.6718 391.061 76.0492 390.161 75.4266 389.712 74.502 389.712 73.2753 389.712 71.3781 390.397 70.2069 391.767 69.7617 393.292 69.2534 394.103 68.9771 394.2 68.9327 394.298 68.8884 394.403 68.7805 394.518 68.6091 394.797 68.2368 394.936 67.5728 394.936 66.6172L394.936 15.3548C394.936 14.41 394.796 13.7512 394.517 13.3784 394.402 13.2064 394.297 13.0987 394.201 13.0551 394.105 13.0116 393.303 12.7387 391.796 12.2363 390.406 11.7846 389.712 10.6047 389.712 8.69666 389.712 7.48031 390.165 6.55811 391.073 5.93007 391.98 5.30202 393.155 4.98801 394.598 4.98801ZM284.598 4.98801 285.93 4.98801 308.76 4.98801 310.091 4.98801C311.543 4.98801 312.729 5.30652 313.65 5.94353 314.57 6.58056 315.03 7.49827 315.03 8.69666 315.03 10.5933 314.327 11.7699 312.922 12.2265 311.41 12.7305 310.608 13.003 310.517 13.0441 310.426 13.0852 310.325 13.1904 310.212 13.3596 309.941 13.721 309.805 14.386 309.805 15.3548L309.805 66.6172C309.805 67.5968 309.941 68.2673 310.212 68.6286 310.324 68.7968 310.425 68.9016 310.516 68.9429 310.606 68.9843 311.398 69.254 312.893 69.7519 314.318 70.2151 315.03 71.3895 315.03 73.2753 315.03 74.484 314.574 75.4042 313.661 76.0358 312.749 76.6673 311.559 76.9831 310.091 76.9831L308.76 76.9831 285.93 76.9831 284.598 76.9831C283.139 76.9831 281.96 76.6718 281.061 76.0492 280.161 75.4266 279.712 74.502 279.712 73.2753 279.712 71.3781 280.397 70.2069 281.767 69.7617 283.292 69.2534 284.103 68.9771 284.2 68.9327 284.298 68.8884 284.403 68.7805 284.518 68.6091 284.797 68.2368 284.936 67.5728 284.936 66.6172L284.936 15.3548C284.936 14.41 284.796 13.7512 284.517 13.3784 284.402 13.2064 284.297 13.0987 284.201 13.0551 284.105 13.0116 283.303 12.7387 281.796 12.2363 280.406 11.7846 279.712 10.6047 279.712 8.69666 279.712 7.48031 280.165 6.55811 281.073 5.93007 281.98 5.30202 283.155 4.98801 284.598 4.98801ZM236.749 4.98801 239.125 4.98801C242.875 4.98801 246.134 5.13005 248.902 5.41414 253.076 5.81034 256.786 7.16765 260.03 9.48607 264.809 12.8804 267.198 17.6873 267.198 23.9068 267.198 28.9877 265.589 33.1761 262.372 36.472 261.034 37.8484 259.471 38.9701 257.685 39.8374 255.899 40.7046 253.53 41.2103 250.577 41.3546 253.148 41.3703 255.326 41.6841 257.109 42.2958 258.893 42.9075 260.51 43.7386 261.96 44.7889 263.545 45.9568 264.762 47.3509 265.611 48.9711 266.46 50.5912 266.885 52.2914 266.885 54.0716L266.885 64.6718C266.885 65.0424 266.875 65.2278 266.856 65.2278 266.883 65.2278 266.922 65.2064 266.975 65.1637 267.028 65.1209 267.173 64.9469 267.409 64.6416 268.516 63.1515 269.688 62.4065 270.925 62.4065 271.813 62.4065 272.65 62.8248 273.437 63.6616 274.224 64.4984 274.617 65.3478 274.617 66.2098 274.617 67.4686 274.07 68.9221 272.975 70.5703 271.88 72.2185 270.442 73.7501 268.661 75.1651 267.335 76.2302 265.8 77.0258 264.055 77.5521 262.31 78.0784 260.262 78.3415 257.911 78.3415 253.111 78.3415 249.348 76.9532 246.624 74.1765 243.9 71.3999 242.538 67.566 242.538 62.675L242.538 54.0716C242.538 52.2468 242.521 51.1806 242.486 50.8731 242.341 49.7096 241.913 48.6804 241.202 47.7857 240.444 46.872 238.973 46.2943 236.791 46.0526L236.791 38.7316C239.033 38.4002 240.491 37.9414 241.166 37.3553 241.66 36.9117 242.012 36.3679 242.222 35.7238 242.433 35.0797 242.538 34.0428 242.538 32.6131L242.538 19.0438C242.538 17.1488 242.19 15.7612 241.495 14.8809 240.799 14.0006 239.217 13.2135 236.749 12.5196ZM209.598 4.98801 210.93 4.98801 234.805 4.98801 234.805 66.2074C234.805 67.3013 234.995 68.0616 235.373 68.4882 235.495 68.6406 235.615 68.7376 235.732 68.7793 235.85 68.8209 236.607 69.0205 238.004 69.3781 240.121 69.8613 241.18 71.1261 241.18 73.1724 241.18 74.4416 240.734 75.3178 239.843 75.8011 238.693 76.5891 237.247 76.9831 235.508 76.9831L233.76 76.9831 210.93 76.9831 209.598 76.9831C208.139 76.9831 206.96 76.6718 206.061 76.0492 205.161 75.4266 204.712 74.502 204.712 73.2753 204.712 71.3781 205.397 70.2069 206.767 69.7617 208.292 69.2534 209.103 68.9771 209.2 68.9327 209.298 68.8884 209.403 68.7805 209.518 68.6091 209.797 68.2368 209.936 67.5728 209.936 66.6172L209.936 15.3548C209.936 14.41 209.796 13.7512 209.517 13.3784 209.402 13.2064 209.297 13.0987 209.201 13.0551 209.105 13.0116 208.303 12.7387 206.796 12.2363 205.406 11.7846 204.712 10.6047 204.712 8.69666 204.712 7.48031 205.165 6.55811 206.073 5.93007 206.98 5.30202 208.155 4.98801 209.598 4.98801ZM174.261 4.98801 197.04 4.98801 197.04 24.164C197.04 25.4679 196.739 26.4729 196.135 27.1787 195.531 27.8846 194.614 28.2375 193.383 28.2375 192.357 28.2375 191.59 28.0092 191.083 27.5526 190.577 27.096 190.141 26.2992 189.775 25.1623 188.543 21.3995 186.75 18.5406 184.395 16.5854 182.04 14.6303 178.662 13.4268 174.261 12.9751ZM146.598 4.98801 147.93 4.98801 171.805 4.98801 171.805 76.9831 147.93 76.9831 146.598 76.9831C145.139 76.9831 143.96 76.6718 143.061 76.0492 142.161 75.4266 141.712 74.502 141.712 73.2753 141.712 71.3781 142.397 70.2069 143.767 69.7617 145.292 69.2534 146.103 68.9771 146.2 68.9327 146.298 68.8884 146.403 68.7805 146.518 68.6091 146.797 68.2368 146.936 67.5728 146.936 66.6172L146.936 15.3548C146.936 14.41 146.796 13.7512 146.517 13.3784 146.402 13.2064 146.297 13.0987 146.201 13.0551 146.105 13.0116 145.303 12.7387 143.796 12.2363 142.406 11.7846 141.712 10.6047 141.712 8.69666 141.712 7.48031 142.165 6.55811 143.073 5.93007 143.98 5.30202 145.155 4.98801 146.598 4.98801ZM106.01 4.98801C113.862 4.98801 119.528 5.68108 123.009 7.06724 127.09 8.6934 129.694 11.0219 130.821 14.0527 134.475 17.7954 136.303 22.1212 136.303 27.0301 136.303 32.4937 135.073 36.9972 132.615 40.5407 130.179 44.0167 126.291 46.6047 120.951 48.3049 118.362 49.5681 113.395 50.1997 106.052 50.1997L106.052 42.8476C107.931 42.4123 109.113 42.0423 109.598 41.7378 110.084 41.4333 110.458 41.0691 110.722 40.6451 111.44 39.2699 111.799 37.5485 111.799 35.4809L111.799 19.0953C111.799 17.6258 111.699 16.5605 111.498 15.8993 111.296 15.238 110.831 14.5771 110.1 13.9164 109.413 13.253 108.05 12.7757 106.01 12.4845ZM78.5984 4.98801 79.9298 4.98801 103.805 4.98801 103.805 66.2074C103.805 67.3013 103.995 68.0616 104.373 68.4882 104.495 68.6406 104.615 68.7376 104.732 68.7793 104.85 68.8209 105.607 69.0205 107.004 69.3781 109.121 69.8613 110.18 71.1261 110.18 73.1724 110.18 74.4416 109.734 75.3178 108.843 75.8011 107.693 76.5891 106.247 76.9831 104.508 76.9831L102.76 76.9831 79.9298 76.9831 78.5984 76.9831C77.1393 76.9831 75.9601 76.6718 75.0607 76.0492 74.1614 75.4266 73.7117 74.502 73.7117 73.2753 73.7117 71.3781 74.3969 70.2069 75.7673 69.7617 77.2922 69.2534 78.1033 68.9771 78.2004 68.9327 78.2976 68.8884 78.4033 68.7805 78.5176 68.6091 78.7968 68.2368 78.9363 67.5728 78.9363 66.6172L78.9363 15.3548C78.9363 14.41 78.7965 13.7512 78.5167 13.3784 78.4025 13.2064 78.2973 13.0987 78.2012 13.0551 78.1052 13.0116 77.3034 12.7387 75.7959 12.2363 74.4064 11.7846 73.7117 10.6047 73.7117 8.69666 73.7117 7.48031 74.1654 6.55811 75.0726 5.93007 75.9798 5.30202 77.1551 4.98801 78.5984 4.98801ZM28.4943 4.98801 50.8335 4.98801 65.2918 66.4C65.5095 67.0721 65.8151 67.8811 66.2086 68.827 66.324 69.0714 66.6878 69.3182 67.3 69.5674 68.5567 70.0866 69.4235 70.6087 69.9005 71.1336 70.3775 71.6585 70.616 72.3724 70.616 73.2753 70.616 75.7472 68.9227 76.9831 65.5359 76.9831L39.9737 76.9831C38.6953 76.9831 37.6399 76.6473 36.8075 75.9758 35.9751 75.3042 35.5589 74.388 35.5589 73.2271 35.5589 72.2987 35.7539 71.5895 36.1438 71.0997 36.5338 70.6099 37.2615 70.0785 38.3271 69.5054 38.8665 69.2349 39.2191 68.9746 39.3851 68.7246 39.5511 68.4745 39.6341 68.1508 39.6341 67.7535 39.6341 67.2898 39.6186 66.9902 39.5876 66.8547L38.0488 59.8464 23.5611 59.8464 25.1456 51.6438 36.4193 51.6438 26.9938 11.0388ZM352.903 3.60512C357.458 3.79397 361.322 4.58011 364.493 5.96354 367.664 7.34697 370.605 9.36144 373.318 12.0069 380.502 19.0242 384.094 28.7094 384.094 41.0623 384.094 53.1943 380.661 62.6799 373.795 69.5193 368.507 74.8146 361.543 77.7635 352.903 78.366L352.903 70.8622C354.188 70.5623 355.02 70.287 355.397 70.0364 355.774 69.7858 356.456 69.2537 357.441 68.4401 357.585 67.5345 357.657 65.766 357.657 63.1346L357.657 17.3524C357.657 15.7393 357.397 14.4794 356.877 13.5727 356.544 12.9811 356.153 12.5207 355.706 12.1914 355.259 11.8622 354.325 11.442 352.903 10.931ZM350.813 3.60512 350.813 10.9171C348.822 11.6203 347.532 12.4079 346.943 13.28 346.353 14.1522 346.058 15.5096 346.058 17.3524L346.058 63.1346C346.058 65.9472 346.451 67.944 347.237 69.125 347.666 69.8031 348.858 70.3969 350.813 70.9062L350.813 78.366C342.174 77.7304 335.205 74.7814 329.906 69.5193 323.05 62.7012 319.622 53.2155 319.622 41.0623 319.622 34.9713 320.521 29.4733 322.32 24.5685 324.119 19.6636 326.807 15.4764 330.384 12.0069 333.109 9.35382 336.046 7.33731 339.197 5.95741 342.348 4.57752 346.22 3.79342 350.813 3.60512Z" stroke="#FFFFFF" stroke-linejoin="round" stroke-miterlimit="10" fill="#FFFFFF" fill-rule="evenodd"/></g></g><path d="M605.247 455.137C606.599 455.137 607.547 455.545 608.09 456.36 608.634 457.176 608.906 458.381 608.906 459.975L608.906 479.118 585.448 479.118 585.448 471.642C588.202 471.218 590.248 470.723 591.588 470.155 592.928 469.587 594.297 468.701 595.696 467.497 597.093 466.295 598.198 465.064 599.011 463.803 599.824 462.543 600.68 460.642 601.579 458.1 601.883 457.216 602.32 456.501 602.889 455.956 603.458 455.41 604.245 455.137 605.247 455.137ZM595.64 427.394C597.19 427.394 598.24 427.971 598.791 429.124 599.161 429.811 599.345 431.02 599.345 432.751L599.345 452.262C599.345 454.044 599.091 455.369 598.583 456.237 598.075 457.106 597.128 457.54 595.742 457.54 594.649 457.54 593.796 457.21 593.184 456.551 592.572 455.892 592.11 454.92 591.799 453.637 591.255 451.432 590.513 449.777 589.572 448.672 588.631 447.567 587.152 446.772 585.134 446.288L585.134 438.864C587.366 437.784 588.908 436.741 589.759 435.735 590.61 434.73 591.25 433.319 591.678 431.504 591.966 430.136 592.416 429.109 593.03 428.423 593.644 427.737 594.514 427.394 595.64 427.394ZM436.999 420.132 440.629 431.775 431.437 465.495C431.263 466.104 431.176 466.78 431.176 467.523 431.176 469.242 431.963 470.463 433.535 471.185L435.32 472.005C436.877 472.715 437.655 473.884 437.655 475.512 437.655 477.916 436.044 479.118 432.821 479.118L419.81 479.118C418.314 479.118 417.082 478.769 416.116 478.073 415.15 477.376 414.667 476.386 414.667 475.103 414.667 473.66 415.625 472.524 417.541 471.697 418.846 471.125 419.803 470.612 420.412 470.16 421.02 469.707 421.56 469.154 422.032 468.5 422.981 467.11 423.747 465.315 424.33 463.114ZM833.406 407.123C835.88 407.123 838.06 407.224 839.946 407.428 843.989 407.874 848.117 409.76 852.329 413.087 856.521 416.32 859.623 420.512 861.635 425.665 863.707 430.862 864.743 436.586 864.743 442.839 864.743 449.939 863.424 456.278 860.784 461.855 858.145 467.432 854.342 471.834 849.376 475.062 846.972 476.618 844.72 477.683 842.621 478.257 840.522 478.831 837.45 479.118 833.406 479.118L833.406 471.747C835.252 471.264 836.401 470.898 836.855 470.651 837.309 470.404 837.649 470.099 837.877 469.738 838.42 468.943 838.775 468.125 838.943 467.286 839.111 466.447 839.195 465.16 839.195 463.427L839.195 423.023C839.195 420.711 838.864 418.877 838.201 417.521 837.838 416.74 837.401 416.175 836.889 415.824 836.377 415.474 835.216 415.1 833.406 414.702ZM805.733 407.123 807.064 407.123 830.94 407.123 830.94 479.118 807.064 479.118 805.733 479.118C804.274 479.118 803.095 478.806 802.195 478.184 801.296 477.561 800.846 476.637 800.846 475.41 800.846 473.513 801.531 472.341 802.902 471.896 804.427 471.388 805.238 471.112 805.335 471.067 805.432 471.023 805.538 470.915 805.652 470.744 805.931 470.371 806.071 469.707 806.071 468.752L806.071 417.489C806.071 416.545 805.931 415.886 805.651 415.513 805.537 415.341 805.432 415.233 805.336 415.19 805.24 415.146 804.438 414.873 802.93 414.371 801.541 413.919 800.846 412.739 800.846 410.831 800.846 409.615 801.3 408.693 802.207 408.065 803.114 407.437 804.29 407.123 805.733 407.123ZM695.733 407.123 697.064 407.123 719.894 407.123 721.226 407.123C722.678 407.123 723.864 407.441 724.784 408.078 725.705 408.715 726.165 409.633 726.165 410.831 726.165 412.728 725.462 413.905 724.057 414.361 722.544 414.865 721.743 415.138 721.652 415.179 721.561 415.22 721.459 415.325 721.347 415.494 721.076 415.856 720.94 416.521 720.94 417.489L720.94 468.752C720.94 469.731 721.076 470.402 721.347 470.763 721.459 470.931 721.56 471.036 721.65 471.078 721.741 471.119 722.533 471.389 724.027 471.887 725.452 472.35 726.165 473.524 726.165 475.41 726.165 476.619 725.708 477.539 724.796 478.17 723.884 478.802 722.694 479.118 721.226 479.118L719.894 479.118 697.064 479.118 695.733 479.118C694.274 479.118 693.095 478.806 692.195 478.184 691.296 477.561 690.846 476.637 690.846 475.41 690.846 473.513 691.531 472.341 692.902 471.896 694.427 471.388 695.238 471.112 695.335 471.067 695.432 471.023 695.538 470.915 695.652 470.744 695.931 470.371 696.071 469.707 696.071 468.752L696.071 417.489C696.071 416.545 695.931 415.886 695.651 415.513 695.537 415.341 695.432 415.233 695.336 415.19 695.24 415.146 694.438 414.873 692.93 414.371 691.541 413.919 690.846 412.739 690.846 410.831 690.846 409.615 691.3 408.693 692.207 408.065 693.114 407.437 694.29 407.123 695.733 407.123ZM647.884 407.123 650.259 407.123C654.01 407.123 657.269 407.265 660.037 407.549 664.211 407.945 667.92 409.302 671.164 411.621 675.943 415.015 678.333 419.822 678.333 426.041 678.333 431.122 676.724 435.311 673.506 438.607 672.168 439.983 670.606 441.105 668.82 441.972 667.034 442.839 664.664 443.345 661.712 443.489 664.283 443.505 666.46 443.819 668.244 444.43 670.028 445.042 671.645 445.873 673.095 446.923 674.68 448.091 675.897 449.485 676.746 451.106 677.595 452.726 678.019 454.426 678.019 456.206L678.019 466.806C678.019 467.177 678.01 467.362 677.991 467.362 678.017 467.362 678.057 467.341 678.11 467.298 678.163 467.256 678.307 467.082 678.544 466.776 679.651 465.286 680.823 464.541 682.06 464.541 682.947 464.541 683.784 464.959 684.571 465.796 685.358 466.633 685.752 467.482 685.752 468.344 685.752 469.603 685.204 471.057 684.109 472.705 683.015 474.353 681.577 475.885 679.796 477.3 678.47 478.365 676.935 479.16 675.19 479.687 673.445 480.213 671.397 480.476 669.046 480.476 664.245 480.476 660.483 479.088 657.759 476.311 655.035 473.534 653.672 469.701 653.672 464.81L653.672 456.206C653.672 454.381 653.655 453.315 653.621 453.008 653.475 451.844 653.047 450.815 652.337 449.92 651.578 449.007 650.108 448.429 647.925 448.187L647.925 440.866C650.167 440.535 651.625 440.076 652.3 439.49 652.794 439.046 653.147 438.503 653.357 437.858 653.567 437.214 653.672 436.177 653.672 434.748L653.672 421.178C653.672 419.283 653.325 417.896 652.629 417.015 651.934 416.135 650.352 415.348 647.884 414.654ZM620.733 407.123 622.064 407.123 645.94 407.123 645.94 468.342C645.94 469.436 646.129 470.196 646.507 470.623 646.63 470.775 646.75 470.872 646.867 470.914 646.984 470.955 647.741 471.155 649.138 471.513 651.256 471.996 652.314 473.261 652.314 475.307 652.314 476.576 651.869 477.452 650.978 477.936 649.827 478.724 648.382 479.118 646.642 479.118L644.894 479.118 622.064 479.118 620.733 479.118C619.274 479.118 618.095 478.806 617.195 478.184 616.296 477.561 615.846 476.637 615.846 475.41 615.846 473.513 616.531 472.341 617.902 471.896 619.427 471.388 620.238 471.112 620.335 471.067 620.432 471.023 620.538 470.915 620.652 470.744 620.931 470.371 621.071 469.707 621.071 468.752L621.071 417.489C621.071 416.545 620.931 415.886 620.651 415.513 620.537 415.341 620.432 415.233 620.336 415.19 620.24 415.146 619.438 414.873 617.93 414.371 616.541 413.919 615.846 412.739 615.846 410.831 615.846 409.615 616.3 408.693 617.207 408.065 618.114 407.437 619.29 407.123 620.733 407.123ZM585.396 407.123 608.175 407.123 608.175 426.299C608.175 427.603 607.873 428.607 607.27 429.313 606.666 430.019 605.749 430.372 604.518 430.372 603.491 430.372 602.725 430.144 602.218 429.687 601.711 429.231 601.275 428.434 600.909 427.297 599.678 423.534 597.885 420.675 595.53 418.72 593.175 416.765 589.797 415.561 585.396 415.11ZM557.733 407.123 559.064 407.123 582.94 407.123 582.94 479.118 559.064 479.118 557.733 479.118C556.274 479.118 555.095 478.806 554.195 478.184 553.296 477.561 552.846 476.637 552.846 475.41 552.846 473.513 553.531 472.341 554.902 471.896 556.427 471.388 557.238 471.112 557.335 471.067 557.432 471.023 557.538 470.915 557.652 470.744 557.931 470.371 558.071 469.707 558.071 468.752L558.071 417.489C558.071 416.545 557.931 415.886 557.651 415.513 557.537 415.341 557.432 415.233 557.336 415.19 557.24 415.146 556.438 414.873 554.93 414.371 553.541 413.919 552.846 412.739 552.846 410.831 552.846 409.615 553.3 408.693 554.207 408.065 555.114 407.437 556.29 407.123 557.733 407.123ZM517.145 407.123C524.997 407.123 530.663 407.816 534.144 409.202 538.224 410.828 540.828 413.156 541.955 416.187 545.61 419.93 547.437 424.256 547.437 429.165 547.437 434.628 546.208 439.132 543.75 442.675 541.314 446.151 537.426 448.739 532.086 450.44 529.496 451.703 524.53 452.334 517.187 452.334L517.187 444.982C519.065 444.547 520.247 444.177 520.733 443.872 521.218 443.568 521.593 443.204 521.856 442.78 522.575 441.404 522.934 439.683 522.934 437.616L522.934 421.23C522.934 419.76 522.833 418.695 522.632 418.034 522.431 417.373 521.965 416.712 521.235 416.051 520.548 415.388 519.184 414.91 517.145 414.619ZM489.733 407.123 491.064 407.123 514.94 407.123 514.94 468.342C514.94 469.436 515.129 470.196 515.507 470.623 515.63 470.775 515.75 470.872 515.867 470.914 515.984 470.955 516.741 471.155 518.138 471.513 520.256 471.996 521.314 473.261 521.314 475.307 521.314 476.576 520.869 477.452 519.978 477.936 518.827 478.724 517.382 479.118 515.642 479.118L513.894 479.118 491.064 479.118 489.733 479.118C488.274 479.118 487.095 478.806 486.195 478.184 485.296 477.561 484.846 476.637 484.846 475.41 484.846 473.513 485.531 472.341 486.902 471.896 488.427 471.388 489.238 471.112 489.335 471.067 489.432 471.023 489.538 470.915 489.652 470.744 489.931 470.371 490.071 469.707 490.071 468.752L490.071 417.489C490.071 416.545 489.931 415.886 489.651 415.513 489.537 415.341 489.432 415.233 489.336 415.19 489.24 415.146 488.438 414.873 486.93 414.371 485.541 413.919 484.846 412.739 484.846 410.831 484.846 409.615 485.3 408.693 486.207 408.065 487.114 407.437 488.29 407.123 489.733 407.123ZM439.629 407.123 461.968 407.123 476.426 468.535C476.644 469.207 476.95 470.016 477.343 470.962 477.459 471.206 477.822 471.453 478.435 471.702 479.691 472.221 480.558 472.743 481.035 473.268 481.512 473.793 481.751 474.507 481.751 475.41 481.751 477.882 480.057 479.118 476.671 479.118L451.108 479.118C449.83 479.118 448.775 478.782 447.942 478.11 447.11 477.439 446.693 476.523 446.693 475.362 446.693 474.433 446.888 473.724 447.278 473.234 447.668 472.745 448.396 472.213 449.462 471.64 450.001 471.37 450.354 471.109 450.52 470.859 450.686 470.609 450.769 470.285 450.769 469.888 450.769 469.424 450.753 469.125 450.722 468.989L449.183 461.981 434.696 461.981 436.28 453.778 447.554 453.778 438.128 413.173ZM764.037 405.74C768.593 405.929 772.456 406.715 775.627 408.098 778.798 409.482 781.74 411.496 784.452 414.142 791.636 421.159 795.228 430.844 795.228 443.197 795.228 455.329 791.795 464.815 784.93 471.654 779.642 476.949 772.677 479.898 764.037 480.501L764.037 472.997C765.323 472.697 766.154 472.422 766.532 472.171 766.909 471.92 767.59 471.388 768.575 470.575 768.719 469.669 768.792 467.901 768.792 465.269L768.792 419.487C768.792 417.874 768.532 416.614 768.012 415.707 767.678 415.116 767.288 414.655 766.841 414.326 766.394 413.997 765.459 413.577 764.037 413.066ZM761.947 405.74 761.947 413.052C759.957 413.755 758.667 414.542 758.077 415.415 757.488 416.287 757.193 417.644 757.193 419.487L757.193 465.269C757.193 468.082 757.586 470.079 758.372 471.26 758.801 471.938 759.993 472.531 761.947 473.041L761.947 480.501C753.309 479.865 746.34 476.916 741.041 471.654 734.185 464.836 730.756 455.35 730.756 443.197 730.756 437.106 731.656 431.608 733.454 426.703 735.253 421.798 737.941 417.611 741.518 414.142 744.243 411.488 747.181 409.472 750.332 408.092 753.482 406.712 757.354 405.928 761.947 405.74Z" stroke="#FFFFFF" stroke-linejoin="round" stroke-miterlimit="10" fill="#FFFFFF" fill-rule="evenodd"/><text fill="#000000" fill-opacity="0" font-family="Arial,Arial_MSFontService,sans-serif" font-size="74.7609" x="414.667" y="471.155">APERIOD</text></g></svg>